<?xml version="1.0"?>
<svg width="500" height="500" id="svg27649" version="1.1" docname="CensusAtlasStateMap.svg" xmlns:dc="http://purl.org/dc/elements/1.1/" xmlns:cc="http://creativecommons.org/ns#" xmlns:rdf="http://www.w3.org/1999/02/22-rdf-syntax-ns#" xmlns:svg="http://www.w3.org/2000/svg" xmlns="http://www.w3.org/2000/svg" xmlns:sodipodi="http://sodipodi.sourceforge.net/DTD/sodipodi-0.dtd" xmlns:inkscape="http://www.inkscape.org/namespaces/inkscape">
 <defs id="defs27651">
  <clipPath clipPathUnits="userSpaceOnUse" id="clipPath18837">
   <path connector-curvature="0" d="m 4886.35,4460.35 0,1294.75 1708.4,0 0,-1294.75 -1708.4,0 z" id="path18839"/>
  </clipPath>
 </defs>
 <sodipodi:namedview id="base" pagecolor="#ffffff" bordercolor="#666666" borderopacity="1.0" pageopacity="0.0" pageshadow="2" zoom="2.8" cx="245.11043" cy="215.99723" document-units="px" current-layer="layer1" showgrid="false" window-width="1280" window-height="706" window-x="-8" window-y="-8" window-maximized="1"/>
 <metadata id="metadata27654">
  <rdf:RDF>
   <cc:Work about="">
    <dc:format>image/svg+xml</dc:format>
    <dc:type resource="http://purl.org/dc/dcmitype/StillImage"/>
    <dc:title/>
   </cc:Work>
  </rdf:RDF>
 </metadata>
 <g label="Layer 1" groupmode="layer" id="layer1" transform="translate(0,-552.36218)">
  <path connector-curvature="0" id="53" style="fill-opacity:1;fill-rule:nonzero;stroke:none;fill:" d="m 64.884225,705.92092 40.321795,10.42637 -2.66993,11.49824 -2.14373,9.5299 -2.260679,10.09506 -0.249456,5.41782 -4.213419,-0.99392 -0.915954,-0.23386 -2.942775,-0.70159 -7.386163,-1.77345 -7.054853,0.31181 -8.574952,0.0585 -4.073102,-1.98783 -6.002475,0.60414 -2.923287,-4.77469 -2.030701,-4.75521 -2.139839,-1.75396 -2.767376,-3.46897 1.16541,-0.42875 0.650917,-2.65044 -0.545683,-14.75282 4.747412,-2.5725 7.506991,3.25459 2.864813,4.95009 1.446056,-1.87089 1.14203,-7.97082 -1.51622,-4.22902 0.56517,-1.22777 0,0" label="WA"/>
  <path connector-curvature="0" id="36" style="fill-opacity:1;fill-rule:nonzero;stroke:none;fill:" d="m 431.95096,761.73611 2.0463,9.97814 5.23851,17.22786 0,3.00124 0.19879,5.84656 0.078,-0.0195 1.18491,6.39225 0.35469,1.96833 0.19488,4.83316 0.35079,0.79903 0.74447,0.37029 7.53817,-3.46896 2.0229,-0.23386 0.93935,0.37028 0.23386,0.79903 -1.53959,1.61755 -6.02196,3.35202 -4.57981,1.57858 -1.8709,-1.14983 0.25335,-2.26067 0.0195,-0.46772 -0.0389,-0.99392 -2.96226,-1.05238 -4.52134,-1.81243 -2.74789,-1.26676 -2.24118,-3.87822 -2.10476,-1.42266 -35.3756,6.9769 -0.58077,-3.33255 6.15839,-7.58103 -2.37761,-3.44949 -0.40926,-2.08527 4.32645,-2.22169 12.33626,-1.09135 5.02805,-4.36544 -0.15591,-1.83192 -2.37761,-4.85265 0.1598,-1.28625 8.06437,-11.65414 12.43369,-3.33255 0,0" label="NY"/>
  <path id="26" style="fill-opacity:1;fill-rule:nonzero;stroke:none;fill:" d="m 348.89078,818.50624 -0.23386,-0.76006 -3.81976,0.42875 -4.0731,0.46773 -3.56641,0.37027 -4.89162,0.48722 1.65653,-2.14374 2.00732,-6.45071 0.078,-4.36544 -0.95493,-4.28747 -2.80635,-6.2948 2.14373,-15.4739 6.74304,-10.42638 2.45556,-1.87089 10.04049,3.87821 2.25289,3.81976 0.91986,4.61878 -2.57639,5.10601 -0.21048,2.78685 1.32522,0.95494 1.01731,-1.69549 2.86092,-1.30574 2.47504,1.67602 1.16931,1.89038 3.11816,9.90018 -0.078,4.9501 -3.0597,3.87821 -3.00124,8.02929 -3.47286,0.60414 -4.20173,0.70158 -3.31695,0.5262 0,0 m -49.55937,-56.34139 10.36791,-6.02196 3.97566,-4.98907 3.17663,-1.59805 2.06579,0.77953 -1.8709,0.50671 -1.77346,2.31913 -1.3447,5.24242 2.24118,-1.98782 1.8709,0.1169 2.10477,1.03289 2.3581,3.58589 3.99126,0.54569 1.97224,-0.56517 2.76738,-2.65044 6.08042,-1.40318 7.26923,0.93546 2.84532,0.72106 2.02681,1.32523 0.838,2.33862 -0.77954,1.42266 -1.22778,0.58466 -10.56278,0.27285 -8.08775,3.95616 -3.81975,0.56517 -3.44947,9.58837 -1.23168,-0.91597 -0.89258,-6.19736 -3.00513,-2.86481 -15.47001,-3.93668 -2.43607,-2.70891 0,0" label="MI"/>
  <path connector-curvature="0" id="25" style="fill-opacity:1;fill-rule:nonzero;stroke:none;fill:" d="m 458.00714,782.47192 2.39709,7.36667 3.21561,4.15106 2.41268,1.03289 -0.19489,1.20829 -2.45165,2.08528 -3.31306,1.28624 -1.16541,-1.96835 -0.35469,-0.35079 -1.26676,-3.31305 -4.22511,0.93545 -2.75178,0.40926 -7.30821,1.73448 -3.48845,0.72108 -0.078,0.0195 -0.19879,-5.84656 0,-3.00124 6.39614,-1.3642 4.19004,-0.87698 5.26191,-1.77346 2.92328,-2.45556 0,0" label="MA"/>
  <path connector-curvature="0" id="06" style="fill-opacity:1;fill-rule:nonzero;stroke:none;fill:" d="m 29.239678,786.03833 3.036319,0.97441 4.681153,1.28625 7.425124,2.10476 11.069494,3.2351 6.973011,1.83192 -9.116743,35.17683 0.405354,1.81243 34.674024,57.70559 -0.311823,1.59806 1.633144,5.55423 -5.979082,12.00495 -0.604145,3.70281 1.637036,1.16932 0.07411,1.81243 -2.728402,1.46164 -22.548246,-2.49453 -0.502804,-8.06825 -4.856538,-7.97082 -2.685522,-3.07919 -5.472387,-3.80027 -3.180528,-4.7747 -7.736946,-2.49452 -1.126448,-1.63704 1.009511,-7.60054 -6.060936,-15.16208 -3.020724,-27.01112 -3.800268,-9.47143 2.143744,-11.24489 -2.576396,-6.35328 0.276741,-2.22169 4.521349,-6.27531 2.124244,-6.09991 0.623632,-5.67116 0,0" label="CA"/>
  <path connector-curvature="0" id="44" style="fill-opacity:1;fill-rule:nonzero;stroke:none;fill:" d="m 453.06095,794.90561 4.22511,-0.93545 1.26676,3.31305 0.35469,0.35079 1.16541,1.96835 -2.49453,2.26067 -2.86481,1.40317 -0.29233,-3.44947 -0.40926,-1.5396 -0.95104,-3.37151 0,0" label="RI"/>
  <path connector-curvature="0" id="09" style="fill-opacity:1;fill-rule:nonzero;stroke:none;fill:" d="m 453.06095,794.90561 0.95104,3.37151 0.40926,1.5396 0.29233,3.44947 -8.10724,2.86482 -5.35934,4.83315 -0.19489,-4.83315 -0.35469,-1.96834 -1.18491,-6.39224 3.48845,-0.72108 7.30821,-1.73448 2.75178,-0.40926 0,0" label="CT"/>
  <path connector-curvature="0" id="32" style="fill-opacity:1;fill-rule:nonzero;stroke:none;fill:" d="m 86.126745,801.14195 0.06238,0.0195 23.850085,5.06702 -2.33862,12.12187 -2.61147,13.31068 -0.85749,4.4239 -2.29966,11.81006 -0.99391,5.14497 -1.290146,6.60662 -1.399271,7.34718 -1.851409,9.78325 -1.286252,1.83192 -0.935442,-0.078 -0.838005,-1.69551 -3.410496,0 -0.545683,11.24489 -0.993917,2.08529 -34.674023,-57.70559 -0.405354,-1.81243 9.116743,-35.17683 5.086507,1.30574 9.257059,2.24118 9.3584,2.12426 0,0" label="NV"/>
  <path connector-curvature="0" id="42" style="fill-opacity:1;fill-rule:nonzero;stroke:none;fill:" d="m 388.76434,805.48789 0.58077,3.33254 35.3756,-6.9769 2.10476,1.42266 2.24118,3.87822 2.74789,1.26676 -1.55909,3.5859 -0.81852,1.90987 0.34689,4.50185 5.12939,4.71623 -1.79295,1.65653 -1.44215,2.65044 -1.5162,1.14983 -1.60196,-0.0974 -1.28625,1.73448 -30.72953,6.04145 -2.40099,0.42875 -5.49576,0.93545 -1.42267,-3.48845 -0.29233,-1.75396 -0.46772,-2.92329 -0.48722,-2.94276 -2.70891,-16.40937 5.49577,-4.61878 0,0" label="PA"/>
  <path connector-curvature="0" id="34" style="fill-opacity:1;fill-rule:nonzero;stroke:none;fill:" d="m 431.81454,808.41117 4.52133,1.81244 2.96227,1.05238 0.0389,0.99391 -0.0195,0.46772 -0.25335,2.26067 -1.14983,1.11086 -0.21437,1.24726 -0.0389,0.77954 0.15591,0.27284 1.61755,0.0195 0.38977,-0.64312 0.1559,0.0585 0.22996,0.31181 0.41317,1.69551 0.54957,6.72355 -0.1598,0.97443 -0.64313,2.3776 -2.53351,5.5932 -1.50062,0.0389 -2.61147,-0.56516 -1.14981,-0.44825 -1.0134,-0.64312 -2.04631,-2.68941 -0.0974,-0.29234 0.27284,-0.76004 0.47162,-1.57857 1.51621,-1.14983 1.44215,-2.65044 1.79295,-1.65652 -5.12939,-4.71624 -0.34689,-4.50185 0.81852,-1.90987 1.55908,-3.58589 0,0" label="NJ"/>
  <path connector-curvature="0" id="39" style="fill-opacity:1;fill-rule:nonzero;stroke:none;fill:" d="m 348.89078,818.50624 3.31695,-0.5262 4.20173,-0.70158 3.47286,-0.60414 8.55547,3.21561 5.86605,-2.2217 3.17663,-3.89771 5.7881,-3.66385 2.70891,16.40936 -0.74056,11.65414 -2.14374,3.78078 -1.6955,1.59806 -0.83802,-0.72107 -4.18613,5.4568 -0.45214,5.33985 -1.0095,2.14374 -2.2256,0.60415 -2.90379,-3.19612 -3.82365,1.3642 -2.5452,-0.1169 -5.40224,-1.16932 -1.05237,-2.29964 -1.6955,-0.70159 -2.68942,0.19488 -0.29233,-2.45555 -0.3508,-3.2351 -0.48721,-4.30696 -0.56517,-5.37884 -0.52619,-4.63828 -0.38976,-3.21561 -0.38588,-3.23509 -0.25726,-2.14375 -0.42874,-3.33253 0,0" label="OH"/>
  <path connector-curvature="0" id="17" style="fill-opacity:1;fill-rule:nonzero;stroke:none;fill:" d="m 300.48124,812.6207 23.03545,-1.44216 3.11818,9.49093 2.39709,27.59578 -0.46773,4.01463 1.55908,4.52135 -3.37152,7.17179 -0.1754,5.35934 -3.68333,6.9769 -3.68333,0.74056 -1.94886,2.08528 0.40926,1.03289 -2.28015,-0.74057 -1.09137,-2.31913 0.42876,-2.00732 -2.51403,-4.71623 -2.35812,-0.74056 -3.85873,-3.97567 -0.25724,-1.46163 1.87479,-6.45071 -10.85512,-9.82223 -1.96833,-6.31429 0.6626,-2.24119 9.45195,-19.80036 -0.0974,-1.30572 -4.32645,-5.65168 0,0" label="IL"/>
  <path connector-curvature="0" id="08" style="fill-opacity:1;fill-rule:nonzero;stroke:none;fill:" d="m 148.68496,825.11286 9.33503,1.22777 13.21322,1.57858 8.63343,0.91595 10.15354,0.89648 16.60423,1.22778 -0.77565,12.37522 -2.30354,37.20363 -8.45802,-0.6821 -8.88678,-0.64312 -10.67972,-0.97443 -6.91844,-0.70158 -12.4142,-1.46164 -14.26561,-1.85142 2.43606,-18.39718 1.75787,-12.23881 2.00341,-14.20714 0.56517,-4.26799 0,0" label="CO"/>
  <path connector-curvature="0" id="24" style="fill-opacity:1;fill-rule:nonzero;stroke:none;fill:" d="m 427.2737,830.21885 1.09137,4.15107 0.42874,1.55907 0.33131,1.22778 1.67601,6.08043 0.25335,0.89647 3.33255,0.64312 2.47504,-0.54567 -0.50671,5.49577 -3.42998,1.73447 -1.03289,-0.0585 -1.38369,-3.0597 -3.54691,-0.27284 -1.69551,-4.28749 0.039,-1.77344 0.8575,-0.37029 -1.57858,-6.11941 -0.95104,0.15591 -1.23168,1.96835 1.65653,2.28015 -0.77954,3.25459 1.11085,3.0792 1.32522,1.28624 0,3.05969 -0.078,-0.0195 -7.24974,-1.55908 -0.42875,-1.53959 0.61974,-1.28625 -0.36639,-1.53959 -0.1754,-0.37028 2.39709,-1.34472 -1.47723,-2.90379 -2.53741,1.40318 -0.0936,-0.15591 -1.71889,-2.08527 -2.43607,-0.79903 -1.30572,-1.92937 -3.72232,-0.42875 -6.64559,2.63095 -2.92328,3.89771 -1.029,-6.31429 30.72954,-6.04144 0,0" label="MD"/>
  <path connector-curvature="0" id="11" style="fill-opacity:1;fill-rule:nonzero;stroke:none;fill:" d="m 416.41858,841.44426 2.53741,-1.40318 1.47723,2.90379 -2.39709,1.34471 -0.29232,-0.60414 -0.87698,-1.52012 -0.44825,-0.72106 0,0" label="DC"/>
  <path connector-curvature="0" id="04" style="fill-opacity:1;fill-rule:nonzero;stroke:none;fill:" d="m 98.248618,866.99374 43.673832,7.23024 -9.58837,68.9115 -19.3911,-3.00124 -32.234051,-20.13166 1.39927,-2.53352 2.728402,-1.46164 -0.07411,-1.81243 -1.637036,-1.16932 0.604145,-3.70281 5.979081,-12.00495 -1.633143,-5.55423 0.311822,-1.59806 0.993917,-2.08528 0.545683,-11.2449 3.410496,0 0.838005,1.69551 0.935442,0.078 1.286252,-1.83192 1.851409,-9.78324 0,0" label="AZ"/>
  <path connector-curvature="0" id="48" style="fill-opacity:1;fill-rule:nonzero;stroke:none;fill:" d="m 194.61946,886.01455 7.46411,0.5262 4.79419,0.29232 4.79418,0.29232 4.79419,0.23388 4.83316,0.21437 -0.19489,5.47628 -0.23386,5.37884 -0.23386,5.35934 -0.21439,5.35936 -0.078,2.28015 2.68941,2.35812 7.60054,3.04021 4.36544,0.1754 4.98907,3.68333 6.58712,1.81244 2.22169,-1.81244 7.26923,0.27284 7.83439,-0.93545 7.11333,3.4105 1.22778,1.13033 2.90378,-0.1559 0.0818,3.42998 0.0545,3.09868 0.0389,1.69549 0.0389,2.29966 0.078,3.66384 0.0585,2.3971 2.14374,7.40565 2.80634,4.81367 0.0389,3.85873 -1.63705,4.05361 -0.72106,10.30944 -5.43731,1.42266 -3.78078,3.5859 -5.7881,5.06702 -12.86243,6.52865 -7.11333,5.92453 -1.52009,12.4142 2.84532,9.7443 -1.98783,1.6175 -8.497,-2.7674 -8.71138,-4.6187 -5.14498,-14.59695 -5.16447,-6.93793 -4.04971,-10.93307 -6.78591,-8.51649 -8.80493,-1.98783 -3.51184,1.44215 -5.49577,8.88677 -9.29603,-5.74911 -3.37152,-3.42999 -1.28624,-3.52743 0.0624,-3.81975 -1.71889,-4.5993 -4.17055,-3.58588 -8.28263,-11.55672 -1.32523,-0.77954 5.30089,-2.10476 10.19641,1.03289 8.45412,0.77954 0.40926,0.0195 6.17787,0.50669 2.57249,-0.87698 0.38978,-5.30088 0.38975,-5.32038 0.68211,-7.46411 0.27284,-3.09867 0.48722,-5.98299 0.40926,-5.32037 0.38977,-5.35935 0.52618,-6.82099 0.29234,-3.87822 0.74055,-5.45679 0,0" label="TX"/>
  <path connector-curvature="0" id="12" style="fill-opacity:1;fill-rule:nonzero;stroke:none;fill:" d="m 397.03139,948.5338 3.75739,11.34234 17.63712,33.07206 0.87699,10.5628 -0.87699,6.704 -1.46164,2.1438 -5.90502,2.1437 -1.14983,-1.0718 0.1754,-1.4812 -13.17425,-15.29849 -0.83802,0.31183 -4.32645,-6.39225 -0.33131,-2.35812 -1.3447,-2.29964 -1.44216,-2.47504 0.0195,-11.34234 -2.00732,-2.86482 -3.73792,-1.22777 -2.67382,-2.43607 -0.35079,-1.75397 -2.52961,-2.35812 -3.72621,-1.94885 -2.47505,0.19489 -5.63219,5.08651 -4.13157,0.91596 -1.05238,-2.65045 -5.59322,-3.21561 -4.75519,-1.22778 -10.11457,2.10477 0.19489,-4.36543 -2.43607,-2.26067 0.0741,-1.8709 4.17444,-0.38977 3.62098,-0.33131 3.80416,-0.33131 3.39491,-0.35078 5.12159,-0.60415 4.73182,-0.58466 1.73838,3.35202 25.62743,-1.61754 7.11722,-2.82584 0,0" label="FL"/>
  <path id="15" style="fill-opacity:1;fill-rule:nonzero;stroke:none;fill:" d="m 92.187682,1008.9288 6.138885,3.1961 4.232923,5.2814 -9.299943,7.4641 -2.533503,-1.9098 -1.637049,-7.7955 1.890397,-6.3337 1.20829,0.097 0,0 m -3.780781,-7.3273 1.422663,0.7796 0,1.1693 -4.034128,1.5006 -3.410496,-4.0536 1.013403,-1.38372 5.008558,1.98782 0,0 m -8.247547,-3.50794 2.132041,0.0195 -1.777352,1.3642 -4.638273,-0.60415 0.779543,-1.38369 3.504041,0.60415 0,0 m -8.083852,-1.73448 -4.595393,0.31181 -1.835827,-3.29356 3.328641,-1.67601 3.102579,4.65776 0,0 m -18.631055,-10.66023 1.520113,1.13033 -1.461638,2.94277 -3.582002,-1.1888 0.463828,-1.98784 3.059699,-0.89646 0,0" label="HI"/>
  <path connector-curvature="0" id="27" style="fill-opacity:1;fill-rule:nonzero;stroke:none;fill:" d="m 248.01807,733.18539 15.10362,0.0389 -0.0389,-4.7552 1.42657,0.15591 0.97443,0.74056 1.04847,6.56764 1.16932,0.91596 5.35935,1.55909 6.02196,-0.87698 9.56887,5.92451 16.48731,0.33131 -9.90018,6.29479 -8.47751,9.68581 0.37028,1.26676 -0.77954,-0.48722 -1.28625,1.11086 0.11689,3.0597 -4.19003,9.76375 1.0134,11.12797 11.26438,9.0037 1.16931,1.65652 0.74057,4.28749 -41.84191,0.95493 0.1169,-21.98308 -3.11816,-4.20952 2.14375,-2.65044 0.152,-1.42267 -2.29575,-21.5933 -1.83192,-6.4702 -0.48722,-9.99762 0,0" label="MN"/>
  <path connector-curvature="0" id="55" style="fill-opacity:1;fill-rule:nonzero;stroke:none;fill:" d="m 299.33141,762.16485 2.43607,2.70892 15.47001,3.93668 3.00513,2.86481 0.89258,6.19736 1.23168,0.91597 -2.66994,4.91111 -0.29232,1.92937 0.60414,0.40926 4.50185,-6.68458 1.83192,-0.48721 -2.43606,6.56764 -1.34471,8.34109 -0.52619,8.78934 1.48112,8.61393 -23.03545,1.44216 -3.5859,-2.9038 -1.71498,-9.15961 -0.74057,-4.28749 -1.16931,-1.65652 -11.26438,-9.0037 -1.01341,-11.12797 4.19004,-9.76375 -0.1169,-3.0597 1.28626,-1.11086 0.77954,0.48723 1.71498,0.078 5.08651,-2.26067 2.49454,2.74788 2.90379,0.56517 0,0" label="WI"/>
  <path connector-curvature="0" id="41" style="fill-opacity:1;fill-rule:nonzero;stroke:none;fill:" d="m 49.624705,736.88822 2.139839,1.75396 2.030701,4.75521 2.923287,4.7747 6.002475,-0.60415 4.073102,1.98783 8.574952,-0.0585 7.054853,-0.31181 7.386163,1.77345 2.942775,0.70159 0.915954,0.23386 4.213419,0.99392 2.373715,5.35935 -2.669929,3.83925 -4.088698,5.72962 -1.270657,6.04145 0.818518,1.32523 -2.31913,5.57371 -4.599299,20.38503 -9.3584,-2.12426 -9.257059,-2.24118 -5.086507,-1.30574 -6.973011,-1.83192 -11.069494,-3.2351 -7.425124,-2.10475 -4.681153,-1.28626 -3.036319,-0.97441 -0.60024,-1.8904 1.048486,-8.92575 6.762518,-11.2254 9.490919,-24.98432 3.683344,-2.12424 0,0" label="OR"/>
  <path connector-curvature="0" id="33" style="fill-opacity:1;fill-rule:nonzero;stroke:none;fill:" d="m 448.06799,753.82376 6.91843,22.76262 1.81243,1.50061 0.37029,1.3642 1.11084,0.5262 -0.27284,2.49453 -2.92329,2.45555 -5.2619,1.77346 -4.19004,0.87698 -1.20829,-1.48112 -0.3157,-6.21685 0.21826,-10.44586 1.79295,-7.28871 -0.27284,-3.97567 2.2217,-4.34594 0,0" label="NH"/>
  <path connector-curvature="0" id="31" style="fill-opacity:1;fill-rule:nonzero;stroke:none;fill:" d="m 253.35794,814.08234 4.11208,13.62248 1.46165,10.0366 0.46772,0.76006 1.32132,3.2351 2.08917,3.2351 -5.94401,0.0195 -3.81975,-0.0195 -3.82365,-0.0195 -3.83535,-0.0585 -3.81976,-0.0585 -3.81975,-0.0974 -3.82365,-0.0974 -2.88041,-0.078 -4.73181,-0.1754 -4.77859,-0.19488 -4.7708,-0.23387 -4.77858,-0.25334 -6.13501,-0.37029 0.77565,-12.37522 -16.60423,-1.22777 0.60414,-6.97691 1.09525,-12.95987 0.40536,-4.81368 44.70672,2.51402 9.97813,1.98783 6.54816,4.5993 0,0" label="NE"/>
  <path connector-curvature="0" id="49" style="fill-opacity:1;fill-rule:nonzero;stroke:none;fill:" d="m 110.03918,806.22846 15.14261,2.7089 5.30088,0.8575 3.7457,0.58465 -1.97224,12.31677 16.42883,2.41658 -0.56517,4.26799 -2.00341,14.20714 -1.75787,12.23881 -2.43606,18.39718 -43.673832,-7.23024 1.39927,-7.34719 1.290142,-6.60662 0.99392,-5.14497 2.29965,-11.81006 0.8575,-4.4239 2.61146,-13.31067 2.33862,-12.12187 0,0" label="UT"/>
  <path connector-curvature="0" id="18" style="fill-opacity:1;fill-rule:nonzero;stroke:none;fill:" d="m 332.30603,819.50015 4.89162,-0.48722 3.56641,-0.37027 4.0731,-0.46773 3.81976,-0.42875 0.23386,0.76006 0.42874,3.33253 0.25726,2.14375 0.38588,3.23509 0.38976,3.21561 0.52619,4.63828 0.56517,5.37884 0.48721,4.30696 0.3508,3.2351 0.29233,2.45555 0.60804,3.04022 -3.27798,2.43608 -7.50308,9.29603 -3.85873,2.49453 -7.09383,-0.56517 -4.11209,0.8575 -0.76006,1.32522 0.1754,-5.35934 3.37152,-7.17179 -1.55908,-4.52135 0.46773,-4.01463 -2.39709,-27.59578 5.67116,-1.16932 0,0" label="IN"/>
  <path connector-curvature="0" id="10" style="fill-opacity:1;fill-rule:nonzero;stroke:none;fill:" d="m 429.69028,830.16039 -0.69769,0.97443 0.54179,1.46164 7.32769,11.63466 -2.47504,0.54567 -3.33255,-0.64312 -0.25335,-0.89647 -1.67601,-6.08043 -0.33131,-1.22778 -0.42874,-1.55907 -1.09137,-4.15107 1.28625,-1.73448 1.60196,0.0974 -0.47163,1.57858 0,0" label="DE"/>
  <path connector-curvature="0" id="29" style="fill-opacity:1;fill-rule:nonzero;stroke:none;fill:" d="m 295.45319,839.37846 -0.6626,2.24119 1.96833,6.31429 10.85512,9.82223 -1.87479,6.45071 0.25724,1.46163 3.85873,3.97567 2.35812,0.74056 2.51403,4.71623 -0.42876,2.00732 1.09137,2.31913 2.28015,0.74057 -2.08527,6.13889 -0.60025,0.0585 -0.48721,0.0195 -0.54957,3.8977 -0.77955,2.33864 -2.02681,0.15591 -3.66384,0.27283 1.38368,-2.63095 -0.42875,-3.64436 -3.15714,0.1754 -4.89552,0.29232 -4.87214,0.21438 -3.97177,0.17539 -5.80758,0.23387 -4.83706,0.13642 -2.39319,0.0585 -4.40441,0.0974 -4.81367,0.078 -0.0936,-6.15838 0,-0.72107 -0.0624,-3.80027 -0.0389,-3.56641 -0.0585,-5.02804 -0.0585,-5.18394 -0.0195,-4.57981 -0.0545,-3.29358 -1.60195,-1.05238 -2.68942,-4.09259 -0.70159,-4.54083 -1.09136,-1.24727 -2.08917,-3.23509 -1.32132,-3.2351 -0.46772,-0.76006 33.89057,-0.97443 2.63095,2.61147 0,0" label="MO"/>
  <path id="51" style="fill-opacity:1;fill-rule:nonzero;stroke:none;fill:" d="m 412.17008,838.40404 2.43607,0.79904 1.71889,2.08527 0.0936,0.15591 0.44824,0.72106 0.87698,1.52012 0.29233,0.60414 0.17539,0.37029 0.3664,1.53958 -0.61974,1.28626 0.42874,1.53958 7.24974,1.55909 -0.21437,0.85749 2.82584,1.79295 1.20829,6.09992 -0.74056,2.59197 0.38976,2.82584 3.70283,-0.25335 2.08527,4.22901 -31.82479,6.35327 -19.11827,2.53351 -17.63712,2.33863 6.27531,-4.2485 2.47504,-4.36544 4.5993,-4.9306 0.38977,0.25335 -0.5262,0.5262 0.83801,1.36418 2.43608,1.57858 2.49453,-2.08527 4.19004,-1.81244 0.0195,0.0195 4.32645,-4.01465 2.12426,-5.02804 1.56298,-5.88554 3.25069,0.66261 1.40317,-4.63827 3.89771,-4.83316 0.79903,-2.35812 1.14983,-0.56516 1.65652,0.0195 2.49453,-1.20829 0,0 m 20.75523,13.0573 3.42998,-1.73447 -0.87698,4.28747 -2.39319,7.99031 -1.48503,-2.26067 1.32522,-8.28264 0,0" label="VA"/>
  <path connector-curvature="0" id="20" style="fill-opacity:1;fill-rule:nonzero;stroke:none;fill:" d="m 205.84876,843.33464 6.13501,0.37028 4.77858,0.25335 4.7708,0.23386 4.77859,0.19489 4.73181,0.1754 2.88041,0.078 3.82365,0.0974 3.81975,0.0974 3.81976,0.0585 3.83535,0.0585 3.82365,0.0195 3.81975,0.0195 5.94401,-0.0195 1.09136,1.24727 0.70159,4.54083 2.68942,4.09259 1.60195,1.05238 0.0545,3.29358 0.0195,4.57981 0.0585,5.18394 0.0585,5.02804 0.0389,3.56641 0.0624,3.80027 0,0.72107 -3.43389,0.039 -3.54691,0.0195 -3.35203,0.0195 -1.89038,0 -6.62611,-0.0195 -9.31552,-0.1169 -2.74789,-0.0585 -2.06578,-0.0389 -1.75398,-0.0585 -8.04877,-0.27283 -4.83315,-0.21437 -8.3411,-0.3508 -9.56888,-0.48721 -0.1169,0 2.30354,-37.20363 0,0" label="KS"/>
  <path connector-curvature="0" id="37" style="fill-opacity:1;fill-rule:nonzero;stroke:none;fill:" d="m 383.95067,877.61499 19.11826,-2.53351 31.82479,-6.35327 1.65653,3.68333 -7.3082,4.19004 -0.0195,0.95494 4.40441,-1.52011 3.62487,0.039 1.20829,2.63096 -0.23386,1.55907 -2.59589,3.72232 -2.72839,1.42266 -3.71452,8.38008 -5.81148,7.3082 -3.46896,3.80027 -2.28016,1.1888 -5.78809,-4.52135 -4.13158,-3.29356 -0.1169,-0.0974 -2.39709,-1.75396 -7.89286,1.1888 -2.14374,0.23386 -0.0741,-1.3642 -2.77127,-2.20221 -2.94277,0.25335 -4.57982,0.46773 -3.09867,0.31181 -4.71622,2.26067 -1.16932,0.31182 -1.81243,0.95495 -10.93307,1.57856 -0.0585,-2.7089 2.24118,-1.32523 2.84923,-3.81976 3.41049,-2.26066 2.78296,-3.25459 2.47506,-1.5201 3.15713,-1.92937 2.37761,-1.6955 1.65652,-4.28749 0,0" label="NC"/>
  <path connector-curvature="0" id="35" style="fill-opacity:1;fill-rule:nonzero;stroke:none;fill:" d="m 195.0872,879.85617 -0.46774,6.15838 -0.74055,5.45679 -0.29234,3.87822 -0.52618,6.82099 -0.38977,5.35936 -0.40926,5.32037 -0.48722,5.98298 -0.27284,3.09868 -0.68211,7.46411 -0.38975,5.32038 -0.38978,5.30088 -2.57249,0.87698 -6.17787,-0.5067 -0.40926,-0.0195 -8.45412,-0.77954 -10.19641,-1.03289 -5.30089,2.10475 -15.87926,-1.90987 -0.72497,5.43731 -7.99031,-1.05238 9.58837,-68.91151 14.26561,1.85143 12.4142,1.46163 6.91844,0.70158 10.67972,0.97443 8.88678,0.64312 0,0" label="NM"/>
  <path connector-curvature="0" id="47" style="fill-opacity:1;fill-rule:nonzero;stroke:none;fill:" d="m 366.31354,879.95362 17.63713,-2.33863 -1.65652,4.28749 -2.37761,1.69549 -3.15714,1.92937 -2.47505,1.5201 -2.78296,3.25459 -3.41049,2.26067 -2.84924,3.81975 -2.24118,1.32523 0.0585,2.7089 -11.61518,1.40318 -23.52267,2.12425 -1.63704,0.13643 -3.68724,0.29232 -3.7379,0.27283 -4.05751,0.27285 -6.03755,0.38977 2.10475,-1.89039 -0.40925,-2.96225 2.51402,-6.4702 0.6821,-0.19488 -0.48721,-1.16932 0.77954,-2.33863 0.54958,-3.8977 0.48721,-0.0195 0.60025,-0.0585 0.62363,-0.0974 4.62268,-0.33131 2.74009,-0.19489 4.13547,-0.29232 3.50793,-2.0463 4.63828,-0.48722 4.89163,-0.35078 3.18053,-0.40926 3.70282,-0.1754 4.51744,-0.54568 4.36544,-0.23386 4.65776,-0.40926 2.41658,-0.27285 2.7284,-0.5067 0,0" label="TN"/>
  <path connector-curvature="0" id="40" style="fill-opacity:1;fill-rule:nonzero;stroke:none;fill:" d="m 195.0872,879.85617 8.45802,0.6821 0.1169,0 9.56888,0.48721 8.3411,0.3508 4.83315,0.21437 8.04877,0.27284 1.75398,0.0585 2.06578,0.0389 2.74789,0.0585 9.31552,0.1169 6.62611,0.0195 1.89038,0 3.35203,-0.0195 3.54691,-0.0195 3.43389,-0.039 0.0936,6.15839 0.54568,4.17055 0.91596,6.43122 0.40536,3.15714 -0.0741,10.75768 -0.0585,10.67972 -7.11333,-3.41049 -7.83439,0.93544 -7.26923,-0.27284 -2.22169,1.81244 -6.58712,-1.81244 -4.98907,-3.68333 -4.36544,-0.1754 -7.60053,-3.04021 -2.68942,-2.35812 0.078,-2.28015 0.21438,-5.35936 0.23386,-5.35934 0.23386,-5.37884 0.19489,-5.47628 -4.83316,-0.21437 -4.79418,-0.23388 -4.79419,-0.29232 -4.79418,-0.29232 -7.46412,-0.5262 0.46774,-6.15838 0,0" label="OK"/>
  <path connector-curvature="0" id="45" style="fill-opacity:1;fill-rule:nonzero;stroke:none;fill:" d="m 417.62687,906.08776 -3.13765,3.21561 -1.3642,5.20343 -2.26067,3.39101 -11.06949,13.85636 -2.33863,-0.66261 -1.42266,-4.0926 -4.26799,-6.50917 -19.33264,-17.55918 1.55909,-4.09259 1.81243,-0.95494 1.16932,-0.31183 4.71622,-2.26066 3.09867,-0.31181 4.57982,-0.46774 2.94277,-0.25334 2.77127,2.2022 0.0741,1.3642 2.14374,-0.23386 7.89286,-1.1888 2.39709,1.75396 0.1169,0.0974 4.13158,3.29356 5.78809,4.52135 0,0" label="SC"/>
  <path connector-curvature="0" id="13" style="fill-opacity:1;fill-rule:nonzero;stroke:none;fill:" d="m 373.99203,898.83802 -1.55909,4.09259 19.33264,17.55918 4.26799,6.50917 1.42266,4.0926 2.33863,0.66261 -3.39101,13.0963 0.62754,3.68333 -7.11722,2.82584 -25.62743,1.61754 -1.73838,-3.35202 -2.2178,-9.04268 0.21437,-3.7613 -1.0134,-6.58713 -8.08775,-28.41429 11.61518,-1.40318 10.93307,-1.57856 0,0" label="GA"/>
  <path connector-curvature="0" id="01" style="fill-opacity:1;fill-rule:nonzero;stroke:none;fill:" d="m 351.44378,901.81976 8.08775,28.41429 1.0134,6.58713 -0.21437,3.7613 2.2178,9.04268 -4.73182,0.58466 -5.12159,0.60415 -3.39491,0.35078 -3.80416,0.33131 -3.62098,0.33131 -4.17444,0.38977 -0.0741,1.8709 2.43606,2.26067 -0.19488,4.36543 -0.60415,0.1169 -2.14373,0.54569 -0.37028,-0.70159 -2.65044,-4.32646 -2.12426,3.87822 -1.28624,0.25336 -2.2022,-18.45566 0.46772,-36.89181 -1.0329,-1.1888 23.52268,-2.12426 0,0" label="AL"/>
  <path connector-curvature="0" id="22" style="fill-opacity:1;fill-rule:nonzero;stroke:none;fill:" d="m 302.21572,930.1561 0.37028,4.73573 1.5396,2.94276 -0.0429,3.11817 -4.34205,7.4836 -0.79903,6.37276 12.39472,-0.66262 5.57372,0.89648 -0.46382,2.86481 3.46505,5.67117 -3.02072,2.66992 1.90988,5.57373 6.91454,3.11816 -0.34691,1.75398 -0.87698,0.56517 -1.98783,-0.38978 -5.22293,-3.37152 -7.44462,4.17056 -1.96444,0.46772 -4.68116,-2.45556 -0.0389,-2.553 -3.35202,-2.98174 -3.44949,-0.6821 -1.65652,1.13034 -4.55642,1.8514 -6.06484,-2.22169 -5.944,1.20829 0.72107,-10.30944 1.63705,-4.05361 -0.0389,-3.85873 -2.80634,-4.81367 -2.14375,-7.40565 -0.0585,-2.3971 -0.078,-3.66384 -0.0389,-2.29966 -0.0389,-1.69549 2.14373,-0.0585 2.74789,-0.0585 2.65435,-0.0585 4.79027,-0.1169 6.1389,-0.15591 5.92451,-0.23386 1.59807,-0.0585 0.93545,-0.0389 0,0" label="LA"/>
  <path connector-curvature="0" id="38" style="fill-opacity:1;fill-rule:nonzero;stroke:none;fill:" d="m 248.01807,733.18539 0.48722,9.99762 1.83192,6.4702 2.29576,21.5933 -25.44815,-0.68209 -31.90274,-2.06578 3.19612,-37.72983 49.53987,2.41658 0,0" label="ND"/>
  <path id="02" style="fill-opacity:1;fill-rule:nonzero;stroke:none;fill:" d="m 149.50348,669.39939 0.13253,-0.0585 1.25116,-0.0389 0.13642,0.078 2.0463,2.14373 1.8709,2.35812 0.76005,1.42266 0.40926,2.43607 -0.1754,0.54568 -2.49453,0.48721 -0.33131,-0.1169 -1.14592,-1.38369 -0.70548,-1.3642 -1.48113,-3.46896 -0.27285,-3.04021 0,0 m -1.14592,2.08522 -0.27674,0.0974 -0.35078,-0.37027 -0.13643,-0.29234 -0.93545,-4.13156 0.40926,-0.60415 0.40925,-0.13642 1.3681,0.89646 0.21048,1.01341 -0.46772,3.00123 -0.22997,0.5262 0,0 m 4.42001,-4.01464 0.0389,0.1169 -0.74446,0.62363 -1.27845,0.42875 -1.05628,0.19488 -0.39367,0 -0.19489,-1.94886 -1.41876,-1.32521 0.0195,-0.19489 0.44823,-0.25336 2.5335,0.25336 2.04631,2.10476 0,0 m -6.52859,3.2936 -0.13252,-0.0195 -0.35469,-0.31181 -2.18272,-3.00124 -1.22778,-3.33255 0.46383,-0.89646 0.31572,-0.3508 1.85141,0.74057 0.17539,0.38977 0.95884,3.87822 0.17149,2.22169 -0.0389,0.68209 0,0 m -1.2902,-11.94649 1.42657,0.23386 0.29232,0.15591 1.00952,1.77346 0.31571,0.95494 0.078,1.65652 -1.73448,2.06578 -0.25336,0.0974 -0.1169,-0.039 -0.15591,-0.44823 -0.0974,-0.66261 -0.0389,-1.69551 -0.87698,-3.35202 -0.46772,-0.64312 0.61973,-0.0974 0,0 m -4.92682,2.68948 -0.27283,-0.0974 -0.37029,-0.37028 -0.0195,-0.83801 0.50671,-0.89648 0.23386,-0.25334 1.53958,-0.3313 2.62707,1.18879 0.19488,0.37028 0.0818,1.28625 0.46772,1.50062 -0.13642,0.21437 -0.37027,-0.0585 -0.91597,-0.44824 -0.58855,-0.0974 -0.40537,0.52619 -0.33131,0.83801 -0.56515,-0.15591 -1.09137,-1.28624 -0.58466,-1.09137 0,0 m -49.559377,-3.35198 0.448247,2.18272 -0.07797,0.19488 -0.647012,0.74056 -2.081377,1.46165 -3.780781,1.59805 -0.56517,-0.1169 -0.818518,-1.8709 -0.389772,-1.73448 0.350797,-0.76006 0.272835,-0.33129 2.864813,-1.5396 1.169316,-0.44824 1.617548,0.91596 1.637036,-0.29233 0,0 m 0.799044,-3.80029 0.873088,1.83192 -0.07411,0.70158 -0.413151,0.38978 -2.802459,0.52619 -1.364188,-0.70158 3.215597,-2.70891 0.565171,-0.0389 0,0 m -36.478597,-21.0087 0.892575,0.81852 0.175386,0.25335 -0.530088,1.71499 -0.381974,0.42875 -1.099151,0.078 -0.541778,-0.15591 -0.919859,-0.62363 -1.048487,-1.32522 -0.350797,-0.76005 0,-0.68211 0.214373,-0.0974 3.5898,0.3508 0,0 m -5.772506,-23.6981 2.728389,1.24726 0.409259,0.29234 1.247265,2.7089 0.08184,1.1888 -1.173207,0.25335 -3.897704,-3.48844 -0.487222,-0.64312 0.06238,-0.74057 0.28843,-0.48721 0.740569,-0.33131 0,0 m 76.63284,-16.72117 0,54.56792 1.34082,0.46773 1.59807,0.21437 0.81851,-0.91596 1.77345,-0.15591 0.0195,0.19489 -0.31182,1.38369 1.92937,1.98783 2.96225,2.80635 0.39368,1.48113 -0.0429,0.46772 0.23776,-0.0195 0.50281,-0.58466 1.14981,-0.8575 0.83802,-0.21437 0.24944,-0.58466 -0.0116,-0.93545 0.73667,-1.3447 0.52619,-0.13643 0.79903,-0.4872 0.67821,-0.46774 1.15761,0.93546 0.28844,0.33131 0.19878,1.26675 1.67212,1.13033 0.838,1.50062 1.32523,0.62363 1.38367,1.5396 0.0585,0.48721 4.03413,5.47628 1.0134,1.65652 0.21047,0.68211 1.03679,1.38369 0.31572,0.27283 2.29575,0.89648 0.95494,0.078 2.41268,1.09135 0.43265,0.66262 0.56517,3.80026 -0.44825,2.14374 -1.1693,1.77346 -0.81853,-0.29233 -1.3447,-2.16322 -0.72108,-0.1754 -2.80636,-1.67601 -0.23386,-0.85751 -0.35079,-2.84532 -0.95493,-2.47505 -1.83192,-1.52011 -2.01123,-0.99391 -0.87309,-3.50794 -0.50669,-0.21437 -1.13034,-1.67601 -0.5067,-0.40926 -2.43607,-0.33131 0.0389,0.70158 -0.79903,-0.23386 -0.54569,-0.87698 -1.40317,-0.50671 -0.58466,0.0585 0.21437,0.70158 -0.13641,0.19488 -1.89039,0.74057 -2.82584,-1.92937 -1.07187,-1.13033 0.0585,-0.25336 -0.0974,-0.23386 -0.56517,-0.6626 -0.38977,-0.25335 -4.85265,-2.7284 -5.22684,-2.47505 -1.06796,-0.37028 -1.55908,-0.38977 -0.79903,-0.078 -2.37761,0.25335 -0.77954,0.21437 -2.82584,-1.89038 -0.25335,-3.21561 -4.56032,-1.67602 -1.14982,0.21437 -2.78686,1.07188 -0.23386,0.23386 -0.93546,3.31305 -0.93934,1.07187 -2.12036,-0.93545 -1.16931,0.81852 -0.935455,0.85749 0.02333,0.29234 -0.724974,0.70158 -2.553003,1.57857 -0.682094,0.078 -1.734486,0 -0.604145,-0.6821 0.01946,-0.35079 0.79903,-2.63096 2.202207,-5.24242 3.094781,-1.42266 1.835829,0.50671 -0.5262,-1.46165 -2.771266,-0.17539 -2.022916,1.07187 -1.539587,1.32521 -7.425137,8.30213 2.143732,1.71499 -0.682094,1.09136 -3.429984,2.66993 -2.260668,1.22778 -4.365438,2.16323 -0.697689,0.60415 -0.378082,0.35078 -0.717176,0.38977 -4.501849,0.91597 -1.769568,0.74057 -4.646071,2.57248 -3.620964,0.74056 -2.588086,0.23386 -1.937155,-0.17539 -1.808543,1.0134 -8.146205,0.85751 -0.662607,-0.0585 -0.311823,-0.13641 -0.27674,-0.25336 -0.07411,-0.74056 0.175398,-0.35079 2.459459,-0.91597 9.993723,-2.76736 10.33283,-2.68943 0.136424,0.27285 1.184897,-1.22778 1.114746,-0.93546 1.223885,-0.42874 0.974416,-0.66261 0.37419,-0.50671 1.08746,-2.65044 1.637036,-2.53351 1.20829,-1.38369 -0.545683,0.0585 -1.056284,0.1754 -2.650439,-0.0195 -1.516208,-0.54567 -1.383688,-0.62363 -0.510601,-1.38369 -1.925466,-0.66261 -1.321321,-0.13642 -0.923752,0.1169 -1.282347,0.70159 -0.857505,0.1169 -0.409259,-0.1169 -0.233861,-0.31182 0.604145,-3.60538 -2.206098,-4.36543 -1.399284,-0.21437 -0.600239,-0.27285 -0.467734,-0.44823 -1.586359,-5.18396 0.997809,-1.73447 -0.721069,-1.42267 -0.292335,-1.59806 0.487221,-2.84532 6.372746,-5.61271 0.760056,-0.42874 0.604145,-0.0195 0.448234,0.0974 0.662606,0.56517 0.136424,0.46772 0.549576,0.83801 0.736676,0.0974 1.543492,-0.79903 3.874312,-0.0585 0.155911,-0.0389 1.305739,-1.13033 1.656524,-5.39833 -0.171507,-0.70158 -0.354689,-0.68211 -4.985165,0.64312 -5.090412,-1.13032 -2.455554,-1.85141 -0.33131,-0.5262 -1.73058,-6.66508 0,-0.31182 0.190993,-0.29233 0.370285,-0.11693 6.134993,-1.30574 1.644833,-0.19488 1.964441,0.0195 0.958834,0.27283 0.405367,0.40927 -0.05851,0.35079 -1.017296,1.50062 0.08184,0.838 4.291381,1.6955 1.633131,-0.66261 0.370284,-4.42389 -4.034128,-5.43731 -1.714985,-3.19612 -2.026821,-2.74788 1.948859,-1.96835 4.170552,0.66261 0.658714,-0.0974 1.075758,-0.46773 0.993917,-0.64312 0.311823,-0.29233 1.071865,-1.71499 3.235098,-2.33862 5.573728,-1.34471 5.456791,-1.67602 0.545683,-0.25335 7.015875,4.17055 0.0585,1.61755 1.5396,1.26675 0.38586,0.21438 3.00513,-0.13642 1.09137,0.21437 0.25335,0.0974 2.80635,1.96834 5.39833,1.79295 0.70158,0.0195 0.91596,-0.37028 3.5859,0.74057 2.88819,1.6955 0,0 m -92.784858,75.18668 0.518398,-0.1169 0.705474,0.0974 0.584658,0.52619 -0.05851,0.15591 -0.584657,0.54567 -2.942763,0.877 -1.500625,0.25335 -0.783435,0.0389 1.948845,-1.42266 2.112568,-0.95495 0,0 m 6.271455,-0.76003 1.169315,0.50671 0.272848,0.33131 0.253348,0.95493 -0.194886,0.33131 -0.272835,0.15591 -2.139852,0.70158 -3.628761,-0.0195 -0.584658,-0.56517 -0.0156,-0.1169 3.956179,-2.22169 0.502803,-0.078 0.682094,0.0195 0,0" connector-curvature="0" label="AK"/>
  <path connector-curvature="0" id="16" style="fill-opacity:1;fill-rule:nonzero;stroke:none;fill:" d="m 112.18292,717.86739 -2.65044,12.39472 0.95495,7.23025 7.67458,11.32284 -3.65994,13.03784 5.69065,4.09259 1.11084,5.00856 3.9172,7.23025 11.84904,-1.96834 1.98783,3.81975 -2.24119,14.22663 -2.58807,16.11703 -3.7457,-0.58465 -5.30088,-0.8575 -15.14261,-2.7089 -23.85008,-5.06702 -0.06238,-0.0195 4.599298,-20.38502 2.31913,-5.57372 -0.818518,-1.32522 1.270657,-6.04145 4.088698,-5.72963 2.669925,-3.83924 -2.37371,-5.35936 0.249455,-5.41781 2.260685,-10.09507 2.14373,-9.52989 2.66993,-11.49824 6.9769,1.5201 0,0" label="ID"/>
  <path connector-curvature="0" id="30" style="fill-opacity:1;fill-rule:nonzero;stroke:none;fill:" d="m 112.18292,717.86739 37.9403,7.07434 48.35498,5.82708 -3.19612,37.72983 -1.09136,11.7321 -23.44472,-2.35812 -30.6165,-4.30696 -1.07187,6.47019 -1.98783,-3.81975 -11.84904,1.96834 -3.9172,-7.23025 -1.11084,-5.00856 -5.69065,-4.09259 3.65994,-13.03784 -7.67458,-11.32284 -0.95495,-7.23025 2.65044,-12.39472 0,0" label="MT"/>
  <path connector-curvature="0" id="23" style="fill-opacity:1;fill-rule:nonzero;stroke:none;fill:" d="m 448.06799,753.82376 2.04629,0.31181 1.40318,-19.17672 2.98175,-10.7187 7.44072,-0.838 4.2524,2.41657 4.63828,14.85027 4.2485,5.37884 2.72839,0.95494 2.68942,3.68333 -0.97442,2.51403 -6.29481,6.33377 -4.42389,1.14983 -1.22779,3.70282 -2.66993,3.68333 -3.64435,1.5396 -2.98175,10.36791 -1.11084,-0.5262 -0.37029,-1.3642 -1.81243,-1.50061 -6.91843,-22.76262 0,0" label="ME"/>
  <path connector-curvature="0" id="50" style="fill-opacity:1;fill-rule:nonzero;stroke:none;fill:" d="m 431.95096,761.73611 13.89533,-3.56641 0.27284,3.97567 -1.79295,7.28871 -0.21826,10.44586 0.3157,6.21685 1.20829,1.48112 -6.39614,1.3642 -5.23851,-17.22786 -2.0463,-9.97814 0,0" label="VT"/>
  <path connector-curvature="0" id="46" style="fill-opacity:1;fill-rule:nonzero;stroke:none;fill:" d="m 195.28208,768.49864 31.90274,2.06578 25.44815,0.68209 -0.15201,1.42267 -2.14375,2.65044 3.11817,4.20952 -0.1169,21.98308 -1.16932,-0.0195 0.40926,10.44586 0.77954,2.14374 -6.54815,-4.59929 -9.97813,-1.98784 -44.70672,-2.51401 0.5262,-6.23634 0.70158,-8.38008 0.838,-10.13404 1.09137,-11.7321 0,0" label="SD"/>
  <path connector-curvature="0" id="56" style="fill-opacity:1;fill-rule:nonzero;stroke:none;fill:" d="m 194.19072,780.23074 -0.83801,10.13404 -0.70158,8.38008 -0.5262,6.23633 -0.40536,4.81367 -1.09525,12.95988 -0.60414,6.9769 -10.15354,-0.89648 -8.63343,-0.91595 -13.21322,-1.57858 -9.33503,-1.22777 -16.42883,-2.41658 1.97224,-12.31677 2.58807,-16.11703 2.24119,-14.22663 1.07187,-6.47019 30.6165,4.30696 23.44472,2.35812 0,0" label="WY"/>
  <path connector-curvature="0" id="19" style="fill-opacity:1;fill-rule:nonzero;stroke:none;fill:" d="m 295.18036,800.55729 1.71498,9.15961 3.5859,2.9038 4.32645,5.65168 0.0974,1.30572 -9.45195,19.80036 -2.63095,-2.61146 -33.89058,0.97442 -1.46165,-10.0366 -4.11207,-13.62248 -0.77955,-2.14375 -0.40926,-10.44586 1.16932,0.0195 41.84191,-0.95493 0,0" label="IA"/>
  <path connector-curvature="0" id="54" style="fill-opacity:1;fill-rule:nonzero;stroke:none;fill:" d="m 385.97748,826.51603 0.48722,2.94277 0.46772,2.92328 0.29233,1.75396 1.42267,3.48846 5.49576,-0.93545 2.40099,-0.42875 1.029,6.31428 2.92327,-3.8977 6.64559,-2.63095 3.72232,0.42874 1.30573,1.92937 -2.49453,1.20829 -1.65652,-0.0195 -1.14983,0.56516 -0.79903,2.35812 -3.89771,4.83316 -1.40317,4.63827 -3.25069,-0.66261 -1.56298,5.88554 -2.12426,5.02805 -4.32645,4.01464 -0.0195,-0.0195 -4.19004,1.81243 -2.49453,2.08527 -2.43608,-1.57857 -0.83801,-1.36419 0.5262,-0.5262 -0.38977,-0.25335 -3.11816,-1.40317 -2.20221,-2.92329 -1.18491,-1.96835 -0.47163,-3.74179 2.2256,-0.60414 1.0095,-2.14375 0.45214,-5.33985 4.18614,-5.45679 0.83801,0.72106 1.6955,-1.59806 2.14375,-3.78078 0.74055,-11.65414 0,0" label="WV"/>
  <path connector-curvature="0" id="21" style="fill-opacity:1;fill-rule:nonzero;stroke:none;fill:" d="m 372.68629,856.37248 0.47163,3.74179 1.18491,1.96835 2.2022,2.92329 3.11816,1.40317 -4.5993,4.9306 -2.47504,4.36544 -6.27531,4.2485 -2.7284,0.50669 -2.41658,0.27285 -4.65776,0.40926 -4.36544,0.23386 -4.51744,0.54568 -3.70282,0.1754 -3.18053,0.40926 -4.89163,0.35078 -4.63827,0.48723 -3.50794,2.04629 -4.13547,0.29232 -2.74009,0.19489 -4.62268,0.33131 -0.62363,0.0974 2.08527,-6.13889 -0.40926,-1.03289 1.94886,-2.08528 3.68333,-0.74056 3.68333,-6.9769 0.76006,-1.32522 4.11209,-0.8575 7.09383,0.56517 3.85873,-2.49453 7.50308,-9.29603 3.27798,-2.43608 -0.60804,-3.04022 2.68942,-0.19488 1.6955,0.70159 1.05237,2.29965 5.40224,1.16931 2.5452,0.1169 3.82365,-1.3642 2.90379,3.19612 0,0" label="KY"/>
  <path connector-curvature="0" id="05" style="fill-opacity:1;fill-rule:nonzero;stroke:none;fill:" d="m 269.28008,888.23625 4.81367,-0.078 4.40441,-0.0974 2.39319,-0.0585 4.83706,-0.13642 5.80758,-0.23386 3.97177,-0.1754 4.87214,-0.21437 4.89552,-0.29233 3.15714,-0.1754 0.42875,3.64436 -1.38368,2.63095 3.66384,-0.27283 2.02681,-0.15591 0.48721,1.16931 -0.68209,0.19489 -2.51403,6.47019 0.40926,2.96225 -2.10476,1.8904 -6.43511,13.0963 -1.029,4.95008 0.95494,3.17664 -0.0389,3.62487 -0.93546,0.0389 -1.59806,0.0585 -5.92451,0.23386 -6.1389,0.15591 -4.79028,0.1169 -2.65434,0.0585 -2.74789,0.0585 -2.14374,0.0585 -0.0545,-3.09868 -0.0818,-3.42998 -2.90379,0.1559 -1.22778,-1.13033 0.0585,-10.67972 0.0741,-10.75769 -0.40536,-3.15713 -0.91596,-6.43122 -0.54568,-4.17055 0,0" label="AR"/>
  <path connector-curvature="0" id="28" style="fill-opacity:1;fill-rule:nonzero;stroke:none;fill:" d="m 327.92111,903.94401 1.03289,1.18881 -0.46772,36.89181 2.2022,18.45565 -0.78343,0.6821 -3.62098,-0.77955 -4.75521,0.74057 -1.61755,2.45556 -3.46505,-5.67117 0.46381,-2.86481 -5.57371,-0.89648 -12.39472,0.66262 0.79903,-6.37276 4.34205,-7.4836 0.0429,-3.11817 -1.53959,-2.94276 -0.37028,-4.73573 0.0389,-3.62487 -0.95495,-3.17663 1.029,-4.95008 6.43512,-13.09631 6.03755,-0.38977 4.05751,-0.27285 3.7379,-0.27283 3.68724,-0.29232 1.63703,-0.13643 0,0" label="MS"/>
  <path id="State_Lines" style="fill:none;stroke:#231f20;stroke-width:0.97442722;stroke-linecap:round;stroke-linejoin:round;stroke-miterlimit:4;stroke-opacity:1;stroke-dasharray:none" d="m 327.92111,903.94401 1.03289,1.18881 -0.46772,36.89181 2.2022,18.45565 -0.78343,0.6821 -3.62098,-0.77955 -4.75521,0.74057 -1.61755,2.45556 -3.46505,-5.67117 0.46381,-2.86481 -5.57371,-0.89648 -12.39472,0.66262 0.79903,-6.37276 4.34205,-7.4836 0.0429,-3.11817 -1.53959,-2.94276 -0.37028,-4.73573 0.0389,-3.62487 -0.95495,-3.17663 1.029,-4.95008 6.43512,-13.09631 6.03755,-0.38977 4.05751,-0.27285 3.7379,-0.27283 3.68724,-0.29232 1.63703,-0.13643 0,0 z m -58.64103,-15.70776 4.81367,-0.078 4.40441,-0.0974 2.39319,-0.0585 4.83706,-0.13642 5.80758,-0.23386 3.97177,-0.1754 4.87214,-0.21437 4.89552,-0.29233 3.15714,-0.1754 0.42875,3.64436 -1.38368,2.63095 3.66384,-0.27283 2.02681,-0.15591 0.48721,1.16931 -0.68209,0.19489 -2.51403,6.47019 0.40926,2.96225 -2.10476,1.8904 -6.43511,13.0963 -1.029,4.95008 0.95494,3.17664 -0.0389,3.62487 -0.93546,0.0389 -1.59806,0.0585 -5.92451,0.23386 -6.1389,0.15591 -4.79028,0.1169 -2.65434,0.0585 -2.74789,0.0585 -2.14374,0.0585 -0.0545,-3.09868 -0.0818,-3.42998 -2.90379,0.1559 -1.22778,-1.13033 0.0585,-10.67972 0.0741,-10.75769 -0.40536,-3.15713 -0.91596,-6.43122 -0.54568,-4.17055 0,0 z m 103.40621,-31.86377 0.47163,3.74179 1.18491,1.96835 2.2022,2.92329 3.11816,1.40317 -4.5993,4.9306 -2.47504,4.36544 -6.27531,4.2485 -2.7284,0.50669 -2.41658,0.27285 -4.65776,0.40926 -4.36544,0.23386 -4.51744,0.54568 -3.70282,0.1754 -3.18053,0.40926 -4.89163,0.35078 -4.63827,0.48723 -3.50794,2.04629 -4.13547,0.29232 -2.74009,0.19489 -4.62268,0.33131 -0.62363,0.0974 2.08527,-6.13889 -0.40926,-1.03289 1.94886,-2.08528 3.68333,-0.74056 3.68333,-6.9769 0.76006,-1.32522 4.11209,-0.8575 7.09383,0.56517 3.85873,-2.49453 7.50308,-9.29603 3.27798,-2.43608 -0.60804,-3.04022 2.68942,-0.19488 1.6955,0.70159 1.05237,2.29965 5.40224,1.16931 2.5452,0.1169 3.82365,-1.3642 2.90379,3.19612 0,0 z m 13.29119,-29.85645 0.48722,2.94277 0.46772,2.92328 0.29233,1.75396 1.42267,3.48846 5.49576,-0.93545 2.40099,-0.42875 1.029,6.31428 2.92327,-3.8977 6.64559,-2.63095 3.72232,0.42874 1.30573,1.92937 -2.49453,1.20829 -1.65652,-0.0195 -1.14983,0.56516 -0.79903,2.35812 -3.89771,4.83316 -1.40317,4.63827 -3.25069,-0.66261 -1.56298,5.88554 -2.12426,5.02805 -4.32645,4.01464 -0.0195,-0.0195 -4.19004,1.81243 -2.49453,2.08527 -2.43608,-1.57857 -0.83801,-1.36419 0.5262,-0.5262 -0.38977,-0.25335 -3.11816,-1.40317 -2.20221,-2.92329 -1.18491,-1.96835 -0.47163,-3.74179 2.2256,-0.60414 1.0095,-2.14375 0.45214,-5.33985 4.18614,-5.45679 0.83801,0.72106 1.6955,-1.59806 2.14375,-3.78078 0.74055,-11.65414 0,0 z m -90.79712,-25.95874 1.71498,9.15961 3.5859,2.9038 4.32645,5.65168 0.0974,1.30572 -9.45195,19.80036 -2.63095,-2.61146 -33.89058,0.97442 -1.46165,-10.0366 -4.11207,-13.62248 -0.77955,-2.14375 -0.40926,-10.44586 1.16932,0.0195 41.84191,-0.95493 0,0 z m -100.98964,-20.32655 -0.83801,10.13404 -0.70158,8.38008 -0.5262,6.23633 -0.40536,4.81367 -1.09525,12.95988 -0.60414,6.9769 -10.15354,-0.89648 -8.63343,-0.91595 -13.21322,-1.57858 -9.33503,-1.22777 -16.42883,-2.41658 1.97224,-12.31677 2.58807,-16.11703 2.24119,-14.22663 1.07187,-6.47019 30.6165,4.30696 23.44472,2.35812 0,0 z m 1.09136,-11.7321 31.90274,2.06578 25.44815,0.68209 -0.15201,1.42267 -2.14375,2.65044 3.11817,4.20952 -0.1169,21.98308 -1.16932,-0.0195 0.40926,10.44586 0.77954,2.14374 -6.54815,-4.59929 -9.97813,-1.98784 -44.70672,-2.51401 0.5262,-6.23634 0.70158,-8.38008 0.838,-10.13404 1.09137,-11.7321 0,0 z m 236.66888,-6.76253 13.89533,-3.56641 0.27284,3.97567 -1.79295,7.28871 -0.21826,10.44586 0.3157,6.21685 1.20829,1.48112 -6.39614,1.3642 -5.23851,-17.22786 -2.0463,-9.97814 0,0 z m 16.11703,-7.91235 2.04629,0.31181 1.40318,-19.17672 2.98175,-10.7187 7.44072,-0.838 4.2524,2.41657 4.63828,14.85027 4.2485,5.37884 2.72839,0.95494 2.68942,3.68333 -0.97442,2.51403 -6.29481,6.33377 -4.42389,1.14983 -1.22779,3.70282 -2.66993,3.68333 -3.64435,1.5396 -2.98175,10.36791 -1.11084,-0.5262 -0.37029,-1.3642 -1.81243,-1.50061 -6.91843,-22.76262 0,0 z m -335.88507,-35.95637 37.9403,7.07434 48.35498,5.82708 -3.19612,37.72983 -1.09136,11.7321 -23.44472,-2.35812 -30.6165,-4.30696 -1.07187,6.47019 -1.98783,-3.81975 -11.84904,1.96834 -3.9172,-7.23025 -1.11084,-5.00856 -5.69065,-4.09259 3.65994,-13.03784 -7.67458,-11.32284 -0.95495,-7.23025 2.65044,-12.39472 0,0 z m 0,0 -2.65044,12.39472 0.95495,7.23025 7.67458,11.32284 -3.65994,13.03784 5.69065,4.09259 1.11084,5.00856 3.9172,7.23025 11.84904,-1.96834 1.98783,3.81975 -2.24119,14.22663 -2.58807,16.11703 -3.7457,-0.58465 -5.30088,-0.8575 -15.14261,-2.7089 -23.85008,-5.06702 -0.06238,-0.0195 4.599298,-20.38502 2.31913,-5.57372 -0.818518,-1.32522 1.270657,-6.04145 4.088698,-5.72963 2.669925,-3.83924 -2.37371,-5.35936 0.249455,-5.41781 2.260685,-10.09507 2.14373,-9.52989 2.66993,-11.49824 6.9769,1.5201 0,0 z m 37.32056,-48.468 0.13253,-0.0585 1.25116,-0.0389 0.13642,0.078 2.0463,2.14373 1.8709,2.35812 0.76005,1.42266 0.40926,2.43607 -0.1754,0.54568 -2.49453,0.48721 -0.33131,-0.1169 -1.14592,-1.38369 -0.70548,-1.3642 -1.48113,-3.46896 -0.27285,-3.04021 0,0 z m -1.14592,2.08527 -0.27674,0.0974 -0.35078,-0.37027 -0.13643,-0.29234 -0.93545,-4.13156 0.40926,-0.60415 0.40925,-0.13642 1.3681,0.89646 0.21048,1.01341 -0.46772,3.00123 -0.22997,0.5262 0,0 z m 4.42001,-4.01464 0.0389,0.1169 -0.74446,0.62363 -1.27845,0.42875 -1.05628,0.19488 -0.39367,0 -0.19489,-1.94886 -1.41876,-1.32521 0.0195,-0.19489 0.44823,-0.25336 2.5335,0.25336 2.04631,2.10476 0,0 z m -6.52867,3.29356 -0.13252,-0.0195 -0.35469,-0.31181 -2.18272,-3.00124 -1.22778,-3.33255 0.46383,-0.89646 0.31572,-0.3508 1.85141,0.74057 0.17539,0.38977 0.95884,3.87822 0.17149,2.22169 -0.0389,0.68209 0,0 z m -1.29015,-11.94647 1.42657,0.23386 0.29232,0.15591 1.00952,1.77346 0.31571,0.95494 0.078,1.65652 -1.73448,2.06578 -0.25336,0.0974 -0.1169,-0.039 -0.15591,-0.44823 -0.0974,-0.66261 -0.0389,-1.69551 -0.87698,-3.35202 -0.46772,-0.64312 0.61973,-0.0974 0,0 z m -4.9267,2.68941 -0.27283,-0.0974 -0.37029,-0.37028 -0.0195,-0.83801 0.50671,-0.89648 0.23386,-0.25334 1.53958,-0.3313 2.62707,1.18879 0.19488,0.37028 0.0818,1.28625 0.46772,1.50062 -0.13642,0.21437 -0.37027,-0.0585 -0.91597,-0.44824 -0.58855,-0.0974 -0.40537,0.52619 -0.33131,0.83801 -0.56515,-0.15591 -1.09137,-1.28624 -0.58466,-1.09137 0,0 z m -49.559367,-3.35202 0.448247,2.18272 -0.07797,0.19488 -0.647012,0.74056 -2.081377,1.46165 -3.780781,1.59805 -0.56517,-0.1169 -0.818518,-1.8709 -0.389772,-1.73448 0.350797,-0.76006 0.272835,-0.33129 2.864813,-1.5396 1.169316,-0.44824 1.617548,0.91596 1.637036,-0.29233 0,0 z m 0.799031,-3.80027 0.873088,1.83192 -0.07411,0.70158 -0.413151,0.38978 -2.802459,0.52619 -1.364188,-0.70158 3.215597,-2.70891 0.565171,-0.0389 0,0 z m -36.478648,-21.00865 0.892575,0.81852 0.175386,0.25335 -0.530088,1.71499 -0.381974,0.42875 -1.099151,0.078 -0.541778,-0.15591 -0.919859,-0.62363 -1.048487,-1.32522 -0.350797,-0.76005 0,-0.68211 0.214373,-0.0974 3.5898,0.3508 0,0 z m -5.772506,-23.69807 2.728389,1.24726 0.409259,0.29234 1.247265,2.7089 0.08184,1.1888 -1.173207,0.25335 -3.897704,-3.48844 -0.487222,-0.64312 0.06238,-0.74057 0.28843,-0.48721 0.740569,-0.33131 0,0 z m 76.63284,-16.72117 0,54.56792 1.34082,0.46773 1.59807,0.21437 0.81851,-0.91596 1.77345,-0.15591 0.0195,0.19489 -0.31182,1.38369 1.92937,1.98783 2.96225,2.80635 0.39368,1.48113 -0.0429,0.46772 0.23776,-0.0195 0.50281,-0.58466 1.14981,-0.8575 0.83802,-0.21437 0.24944,-0.58466 -0.0116,-0.93545 0.73667,-1.3447 0.52619,-0.13643 0.79903,-0.4872 0.67821,-0.46774 1.15761,0.93546 0.28844,0.33131 0.19878,1.26675 1.67212,1.13033 0.838,1.50062 1.32523,0.62363 1.38367,1.5396 0.0585,0.48721 4.03413,5.47628 1.0134,1.65652 0.21047,0.68211 1.03679,1.38369 0.31572,0.27283 2.29575,0.89648 0.95494,0.078 2.41268,1.09135 0.43265,0.66262 0.56517,3.80026 -0.44825,2.14374 -1.1693,1.77346 -0.81853,-0.29233 -1.3447,-2.16322 -0.72108,-0.1754 -2.80636,-1.67601 -0.23386,-0.85751 -0.35079,-2.84532 -0.95493,-2.47505 -1.83192,-1.52011 -2.01123,-0.99391 -0.87309,-3.50794 -0.50669,-0.21437 -1.13034,-1.67601 -0.5067,-0.40926 -2.43607,-0.33131 0.0389,0.70158 -0.79903,-0.23386 -0.54569,-0.87698 -1.40317,-0.50671 -0.58466,0.0585 0.21437,0.70158 -0.13641,0.19488 -1.89039,0.74057 -2.82584,-1.92937 -1.07187,-1.13033 0.0585,-0.25336 -0.0974,-0.23386 -0.56517,-0.6626 -0.38977,-0.25335 -4.85265,-2.7284 -5.22684,-2.47505 -1.06796,-0.37028 -1.55908,-0.38977 -0.79903,-0.078 -2.37761,0.25335 -0.77954,0.21437 -2.82584,-1.89038 -0.25335,-3.21561 -4.56032,-1.67602 -1.14982,0.21437 -2.78686,1.07188 -0.23386,0.23386 -0.93546,3.31305 -0.93934,1.07187 -2.12036,-0.93545 -1.16931,0.81852 -0.935455,0.85749 0.02333,0.29234 -0.724974,0.70158 -2.553003,1.57857 -0.682094,0.078 -1.734486,0 -0.604145,-0.6821 0.01946,-0.35079 0.79903,-2.63096 2.202207,-5.24242 3.094781,-1.42266 1.835829,0.50671 -0.5262,-1.46165 -2.771266,-0.17539 -2.022916,1.07187 -1.539587,1.32521 -7.425137,8.30213 2.143732,1.71499 -0.682094,1.09136 -3.429984,2.66993 -2.260668,1.22778 -4.365438,2.16323 -0.697689,0.60415 -0.378082,0.35078 -0.717176,0.38977 -4.501849,0.91597 -1.769568,0.74057 -4.646071,2.57248 -3.620964,0.74056 -2.588086,0.23386 -1.937155,-0.17539 -1.808543,1.0134 -8.146205,0.85751 -0.662607,-0.0585 -0.311823,-0.13641 -0.27674,-0.25336 -0.07411,-0.74056 0.175398,-0.35079 2.459459,-0.91597 9.993723,-2.76736 10.33283,-2.68943 0.136424,0.27285 1.184897,-1.22778 1.114746,-0.93546 1.223885,-0.42874 0.974416,-0.66261 0.37419,-0.50671 1.08746,-2.65044 1.637036,-2.53351 1.20829,-1.38369 -0.545683,0.0585 -1.056284,0.1754 -2.650439,-0.0195 -1.516208,-0.54567 -1.383688,-0.62363 -0.510601,-1.38369 -1.925466,-0.66261 -1.321321,-0.13642 -0.923752,0.1169 -1.282347,0.70159 -0.857505,0.1169 -0.409259,-0.1169 -0.233861,-0.31182 0.604145,-3.60538 -2.206098,-4.36543 -1.399284,-0.21437 -0.600239,-0.27285 -0.467734,-0.44823 -1.586359,-5.18396 0.997809,-1.73447 -0.721069,-1.42267 -0.292335,-1.59806 0.487221,-2.84532 6.372746,-5.61271 0.760056,-0.42874 0.604145,-0.0195 0.448234,0.0974 0.662606,0.56517 0.136424,0.46772 0.549576,0.83801 0.736676,0.0974 1.543492,-0.79903 3.874312,-0.0585 0.155911,-0.0389 1.305739,-1.13033 1.656524,-5.39833 -0.171507,-0.70158 -0.354689,-0.68211 -4.985165,0.64312 -5.090412,-1.13032 -2.455554,-1.85141 -0.33131,-0.5262 -1.73058,-6.66508 0,-0.31182 0.190993,-0.29233 0.370285,-0.11693 6.134993,-1.30574 1.644833,-0.19488 1.964441,0.0195 0.958834,0.27283 0.405367,0.40927 -0.05851,0.35079 -1.017296,1.50062 0.08184,0.838 4.291381,1.6955 1.633131,-0.66261 0.370284,-4.42389 -4.034128,-5.43731 -1.714985,-3.19612 -2.026821,-2.74788 1.948859,-1.96835 4.170552,0.66261 0.658714,-0.0974 1.075758,-0.46773 0.993917,-0.64312 0.311823,-0.29233 1.071865,-1.71499 3.235098,-2.33862 5.573728,-1.34471 5.456791,-1.67602 0.545683,-0.25335 7.015875,4.17055 0.0585,1.61755 1.5396,1.26675 0.38586,0.21438 3.00513,-0.13642 1.09137,0.21437 0.25335,0.0974 2.80635,1.96834 5.39833,1.79295 0.70158,0.0195 0.91596,-0.37028 3.5859,0.74057 2.88819,1.6955 0,0 z m -92.784948,75.1868 0.518398,-0.1169 0.705474,0.0974 0.584658,0.52619 -0.05851,0.15591 -0.584657,0.54567 -2.942763,0.877 -1.500625,0.25335 -0.783435,0.0389 1.948845,-1.42266 2.112568,-0.95495 0,0 z m 6.271404,-0.76006 1.169315,0.50671 0.272848,0.33131 0.253348,0.95493 -0.194886,0.33131 -0.272835,0.15591 -2.139852,0.70158 -3.628761,-0.0195 -0.584658,-0.56517 -0.0156,-0.1169 3.956179,-2.22169 0.502803,-0.078 0.682094,0.0195 0,0 z m 208.878214,65.83231 0.48722,9.99762 1.83192,6.4702 2.29576,21.5933 -25.44815,-0.68209 -31.90274,-2.06578 3.19612,-37.72983 49.53987,2.41658 0,0 z m 54.19765,196.97071 0.37028,4.73573 1.5396,2.94276 -0.0429,3.11817 -4.34205,7.4836 -0.79903,6.37276 12.39472,-0.66262 5.57372,0.89648 -0.46382,2.86481 3.46505,5.67117 -3.02072,2.66992 1.90988,5.57373 6.91454,3.11816 -0.34691,1.75398 -0.87698,0.56517 -1.98783,-0.38978 -5.22293,-3.37152 -7.44462,4.17056 -1.96444,0.46772 -4.68116,-2.45556 -0.0389,-2.553 -3.35202,-2.98174 -3.44949,-0.6821 -1.65652,1.13034 -4.55642,1.8514 -6.06484,-2.22169 -5.944,1.20829 0.72107,-10.30944 1.63705,-4.05361 -0.0389,-3.85873 -2.80634,-4.81367 -2.14375,-7.40565 -0.0585,-2.3971 -0.078,-3.66384 -0.0389,-2.29966 -0.0389,-1.69549 2.14373,-0.0585 2.74789,-0.0585 2.65435,-0.0585 4.79027,-0.1169 6.1389,-0.15591 5.92451,-0.23386 1.59807,-0.0585 0.93545,-0.0389 0,0 z m 49.22806,-28.33634 8.08775,28.41429 1.0134,6.58713 -0.21437,3.7613 2.2178,9.04268 -4.73182,0.58466 -5.12159,0.60415 -3.39491,0.35078 -3.80416,0.33131 -3.62098,0.33131 -4.17444,0.38977 -0.0741,1.8709 2.43606,2.26067 -0.19488,4.36543 -0.60415,0.1169 -2.14373,0.54569 -0.37028,-0.70159 -2.65044,-4.32646 -2.12426,3.87822 -1.28624,0.25336 -2.2022,-18.45566 0.46772,-36.89181 -1.0329,-1.1888 23.52268,-2.12426 0,0 z m 22.54825,-2.98174 -1.55909,4.09259 19.33264,17.55918 4.26799,6.50917 1.42266,4.0926 2.33863,0.66261 -3.39101,13.0963 0.62754,3.68333 -7.11722,2.82584 -25.62743,1.61754 -1.73838,-3.35202 -2.2178,-9.04268 0.21437,-3.7613 -1.0134,-6.58713 -8.08775,-28.41429 11.61518,-1.40318 10.93307,-1.57856 0,0 z m 43.63484,7.24974 -3.13765,3.21561 -1.3642,5.20343 -2.26067,3.39101 -11.06949,13.85636 -2.33863,-0.66261 -1.42266,-4.0926 -4.26799,-6.50917 -19.33264,-17.55918 1.55909,-4.09259 1.81243,-0.95494 1.16932,-0.31183 4.71622,-2.26066 3.09867,-0.31181 4.57982,-0.46774 2.94277,-0.25334 2.77127,2.2022 0.0741,1.3642 2.14374,-0.23386 7.89286,-1.1888 2.39709,1.75396 0.1169,0.0974 4.13158,3.29356 5.78809,4.52135 0,0 z m -222.53967,-26.23159 8.45802,0.6821 0.1169,0 9.56888,0.48721 8.3411,0.3508 4.83315,0.21437 8.04877,0.27284 1.75398,0.0585 2.06578,0.0389 2.74789,0.0585 9.31552,0.1169 6.62611,0.0195 1.89038,0 3.35203,-0.0195 3.54691,-0.0195 3.43389,-0.039 0.0936,6.15839 0.54568,4.17055 0.91596,6.43122 0.40536,3.15714 -0.0741,10.75768 -0.0585,10.67972 -7.11333,-3.41049 -7.83439,0.93544 -7.26923,-0.27284 -2.22169,1.81244 -6.58712,-1.81244 -4.98907,-3.68333 -4.36544,-0.1754 -7.60053,-3.04021 -2.68942,-2.35812 0.078,-2.28015 0.21438,-5.35936 0.23386,-5.35934 0.23386,-5.37884 0.19489,-5.47628 -4.83316,-0.21437 -4.79418,-0.23388 -4.79419,-0.29232 -4.79418,-0.29232 -7.46412,-0.5262 0.46774,-6.15838 0,0 z m 171.22634,0.0974 17.63713,-2.33863 -1.65652,4.28749 -2.37761,1.6955 -3.15714,1.92937 -2.47505,1.5201 -2.78296,3.25459 -3.41049,2.26066 -2.84924,3.81976 -2.24118,1.32523 0.0585,2.7089 -11.61518,1.40317 -23.52267,2.12426 -1.63704,0.13642 -3.68724,0.29233 -3.7379,0.27283 -4.05751,0.27285 -6.03755,0.38977 2.10475,-1.8904 -0.40925,-2.96224 2.51402,-6.4702 0.6821,-0.19489 -0.48721,-1.16931 0.77954,-2.33863 0.54958,-3.89771 0.48721,-0.0195 0.60025,-0.0585 0.62363,-0.0974 4.62268,-0.33131 2.74009,-0.19488 4.13547,-0.29232 3.50793,-2.0463 4.63828,-0.48722 4.89163,-0.35079 3.18053,-0.40925 3.70282,-0.1754 4.51744,-0.54569 4.36544,-0.23386 4.65776,-0.40926 2.41658,-0.27284 2.7284,-0.5067 0,0 z m -171.22634,-0.0974 -0.46774,6.15838 -0.74055,5.45679 -0.29234,3.87822 -0.52618,6.82099 -0.38977,5.35936 -0.40926,5.32037 -0.48722,5.98298 -0.27284,3.09868 -0.68211,7.46411 -0.38975,5.32038 -0.38978,5.30088 -2.57249,0.87698 -6.17787,-0.5067 -0.40926,-0.0195 -8.45412,-0.77954 -10.19641,-1.03289 -5.30089,2.10475 -15.87926,-1.90987 -0.72497,5.43731 -7.99031,-1.05238 9.58837,-68.91151 14.26561,1.85143 12.4142,1.46163 6.91844,0.70158 10.67972,0.97443 8.88678,0.64312 0,0 z m 188.86347,-2.24118 19.11826,-2.53351 31.82479,-6.35327 1.65653,3.68333 -7.3082,4.19004 -0.0195,0.95494 4.40441,-1.52011 3.62487,0.039 1.20829,2.63096 -0.23386,1.55907 -2.59589,3.72232 -2.72839,1.42266 -3.71452,8.38008 -5.81148,7.3082 -3.46896,3.80027 -2.28016,1.1888 -5.78809,-4.52135 -4.13158,-3.29356 -0.1169,-0.0974 -2.39709,-1.75396 -7.89286,1.1888 -2.14374,0.23386 -0.0741,-1.3642 -2.77127,-2.20221 -2.94277,0.25335 -4.57982,0.46773 -3.09867,0.31181 -4.71622,2.26067 -1.16932,0.31182 -1.81243,0.95495 -10.93307,1.57856 -0.0585,-2.7089 2.24118,-1.32523 2.84923,-3.81976 3.41049,-2.26066 2.78296,-3.25459 2.47506,-1.5201 3.15713,-1.92937 2.37761,-1.6955 1.65652,-4.28749 0,0 z m -178.10191,-34.28035 6.13501,0.37028 4.77858,0.25335 4.7708,0.23386 4.77859,0.19489 4.73181,0.1754 2.88041,0.078 3.82365,0.0974 3.81975,0.0974 3.81976,0.0585 3.83535,0.0585 3.82365,0.0195 3.81975,0.0195 5.94401,-0.0195 1.09136,1.24727 0.70159,4.54083 2.68942,4.09259 1.60195,1.05238 0.0545,3.29358 0.0195,4.57981 0.0585,5.18394 0.0585,5.02804 0.0389,3.56641 0.0624,3.80027 0,0.72107 -3.43389,0.039 -3.54691,0.0195 -3.35203,0.0195 -1.89038,0 -6.62611,-0.0195 -9.31552,-0.1169 -2.74789,-0.0585 -2.06578,-0.0389 -1.75398,-0.0585 -8.04877,-0.27283 -4.83315,-0.21437 -8.3411,-0.3508 -9.56888,-0.48721 -0.1169,0 2.30354,-37.20363 0,0 z m 206.32132,-4.9306 2.43607,0.79904 1.71889,2.08527 0.0936,0.15591 0.44824,0.72106 0.87698,1.52012 0.29233,0.60414 0.17539,0.37029 0.3664,1.53958 -0.61974,1.28626 0.42874,1.53958 7.24974,1.55909 -0.21437,0.85749 2.82584,1.79295 1.20829,6.09992 -0.74056,2.59197 0.38976,2.82584 3.70283,-0.25335 2.08527,4.22901 -31.82479,6.35327 -19.11827,2.53351 -17.63712,2.33863 6.27531,-4.2485 2.47504,-4.36544 4.5993,-4.9306 0.38977,0.25335 -0.5262,0.5262 0.83801,1.36418 2.43608,1.57858 2.49453,-2.08527 4.19004,-1.81244 0.0195,0.0195 4.32645,-4.01465 2.12426,-5.02804 1.56298,-5.88554 3.25069,0.66261 1.40317,-4.63827 3.89771,-4.83316 0.79903,-2.35812 1.14983,-0.56516 1.65652,0.0195 2.49453,-1.20829 0,0 z m -116.71689,0.97442 -0.6626,2.24119 1.96833,6.31429 10.85512,9.82223 -1.87479,6.45071 0.25724,1.46163 3.85873,3.97567 2.35812,0.74056 2.51403,4.71623 -0.42876,2.00732 1.09137,2.31913 2.28015,0.74057 -2.08527,6.13889 -0.60025,0.0585 -0.48721,0.0195 -0.54957,3.8977 -0.77955,2.33864 -2.02681,0.15591 -3.66384,0.27283 1.38368,-2.63095 -0.42875,-3.64436 -3.15714,0.1754 -4.89552,0.29232 -4.87214,0.21438 -3.97177,0.17539 -5.80758,0.23387 -4.83706,0.13642 -2.39319,0.0585 -4.40441,0.0974 -4.81367,0.078 -0.0936,-6.15838 0,-0.72107 -0.0624,-3.80027 -0.0389,-3.56641 -0.0585,-5.02804 -0.0585,-5.18394 -0.0195,-4.57981 -0.0545,-3.29358 -1.60195,-1.05238 -2.68942,-4.09259 -0.70159,-4.54083 -1.09136,-1.24727 -2.08917,-3.23509 -1.32132,-3.2351 -0.46772,-0.76006 33.89057,-0.97443 2.63095,2.61147 0,0 z m 134.23709,-9.21807 -0.69769,0.97443 0.54179,1.46164 7.32769,11.63466 -2.47504,0.54567 -3.33255,-0.64312 -0.25335,-0.89647 -1.67601,-6.08043 -0.33131,-1.22778 -0.42874,-1.55907 -1.09137,-4.15107 1.28625,-1.73448 1.60196,0.0974 -0.47163,1.57858 0,0 z m -97.38425,-10.66024 4.89162,-0.48722 3.56641,-0.37027 4.0731,-0.46773 3.81976,-0.42875 0.23386,0.76006 0.42874,3.33253 0.25726,2.14375 0.38588,3.23509 0.38976,3.21561 0.52619,4.63828 0.56517,5.37884 0.48721,4.30696 0.3508,3.2351 0.29233,2.45555 0.60804,3.04022 -3.27798,2.43608 -7.50308,9.29603 -3.85873,2.49453 -7.09383,-0.56517 -4.11209,0.8575 -0.76006,1.32522 0.1754,-5.35934 3.37152,-7.17179 -1.55908,-4.52135 0.46773,-4.01463 -2.39709,-27.59578 5.67116,-1.16932 0,0 z m -222.26685,-13.27169 15.14261,2.7089 5.30088,0.8575 3.7457,0.58465 -1.97224,12.31677 16.42883,2.41658 -0.56517,4.26799 -2.00341,14.20714 -1.75787,12.23881 -2.43606,18.39718 -43.673832,-7.23024 1.39927,-7.34719 1.290142,-6.60662 0.99392,-5.14497 2.29965,-11.81006 0.8575,-4.4239 2.61146,-13.31067 2.33862,-12.12187 0,0 z m 143.31876,7.85388 4.11208,13.62248 1.46165,10.0366 0.46772,0.76006 1.32132,3.2351 2.08917,3.2351 -5.94401,0.0195 -3.81975,-0.0195 -3.82365,-0.0195 -3.83535,-0.0585 -3.81976,-0.0585 -3.81975,-0.0974 -3.82365,-0.0974 -2.88041,-0.078 -4.73181,-0.1754 -4.77859,-0.19488 -4.7708,-0.23387 -4.77858,-0.25334 -6.13501,-0.37029 0.77565,-12.37522 -16.60423,-1.22777 0.60414,-6.97691 1.09525,-12.95987 0.40536,-4.81368 44.70672,2.51402 9.97813,1.98783 6.54816,4.5993 0,0 z m 194.71005,-60.25858 6.91843,22.76262 1.81243,1.50061 0.37029,1.3642 1.11084,0.5262 -0.27284,2.49453 -2.92329,2.45555 -5.2619,1.77346 -4.19004,0.87698 -1.20829,-1.48112 -0.3157,-6.21685 0.21826,-10.44586 1.79295,-7.28871 -0.27284,-3.97567 2.2217,-4.34594 0,0 z m -398.443285,-16.93554 2.139839,1.75396 2.030701,4.75521 2.923287,4.7747 6.002475,-0.60415 4.073102,1.98783 8.574952,-0.0585 7.054853,-0.31181 7.386163,1.77345 2.942775,0.70159 0.915954,0.23386 4.213419,0.99392 2.373715,5.35935 -2.669929,3.83925 -4.088698,5.72962 -1.270657,6.04145 0.818518,1.32523 -2.31913,5.57371 -4.599299,20.38503 -9.3584,-2.12426 -9.257059,-2.24118 -5.086507,-1.30574 -6.973011,-1.83192 -11.069494,-3.2351 -7.425124,-2.10475 -4.681153,-1.28626 -3.036319,-0.97441 -0.60024,-1.8904 1.048486,-8.92575 6.762518,-11.2254 9.490919,-24.98432 3.683344,-2.12424 0,0 z m 383.300675,114.57314 3.42998,-1.73447 -0.87698,4.28747 -2.39319,7.99031 -1.48503,-2.26067 1.32522,-8.28264 0,0 z m -133.59397,-89.29651 2.43607,2.70892 15.47001,3.93668 3.00513,2.86481 0.89258,6.19736 1.23168,0.91597 -2.66994,4.91111 -0.29232,1.92937 0.60414,0.40926 4.50185,-6.68458 1.83192,-0.48721 -2.43606,6.56764 -1.34471,8.34109 -0.52619,8.78934 1.48112,8.61393 -23.03545,1.44216 -3.5859,-2.9038 -1.71498,-9.15961 -0.74057,-4.28749 -1.16931,-1.65652 -11.26438,-9.0037 -1.01341,-11.12797 4.19004,-9.76375 -0.1169,-3.0597 1.28626,-1.11086 0.77954,0.48723 1.71498,0.078 5.08651,-2.26067 2.49454,2.74788 2.90379,0.56517 0,0 z m -51.31334,-28.97946 15.10362,0.0389 -0.0389,-4.7552 1.42657,0.15591 0.97443,0.74056 1.04847,6.56764 1.16932,0.91596 5.35935,1.55909 6.02196,-0.87698 9.56887,5.92451 16.48731,0.33131 -9.90018,6.29479 -8.47751,9.68581 0.37028,1.26676 -0.77954,-0.48722 -1.28625,1.11086 0.11689,3.0597 -4.19003,9.76375 1.0134,11.12797 11.26438,9.0037 1.16931,1.65652 0.74057,4.28749 -41.84191,0.95493 0.1169,-21.98308 -3.11816,-4.20952 2.14375,-2.65044 0.152,-1.42267 -2.29575,-21.5933 -1.83192,-6.4702 -0.48722,-9.99762 0,0 z m -155.830388,275.74341 6.138885,3.1961 4.232923,5.2814 -9.299943,7.4641 -2.533503,-1.9098 -1.637049,-7.7955 1.890397,-6.3337 1.20829,0.097 0,0 z m -3.780781,-7.3277 1.422663,0.7796 0,1.1693 -4.034128,1.5006 -3.410496,-4.0536 1.013403,-1.38372 5.008558,1.98782 0,0 z m -8.247547,-3.50794 2.132041,0.0195 -1.777352,1.3642 -4.638273,-0.60415 0.779543,-1.38369 3.504041,0.60415 0,0 z m -8.083852,-1.73447 -4.595393,0.31181 -1.835827,-3.29356 3.328641,-1.67601 3.102579,4.65776 0,0 z m -18.631055,-10.66023 1.520113,1.13033 -1.461638,2.94277 -3.582002,-1.1888 0.463828,-1.98784 3.059699,-0.89646 0,0 z m 343.586943,-37.16466 3.75739,11.34234 17.63712,33.07206 0.87699,10.5628 -0.87699,6.704 -1.46164,2.1438 -5.90502,2.1437 -1.14983,-1.0718 0.1754,-1.4812 -13.17425,-15.29849 -0.83802,0.31183 -4.32645,-6.39225 -0.33131,-2.35812 -1.3447,-2.29964 -1.44216,-2.47504 0.0195,-11.34234 -2.00732,-2.86482 -3.73792,-1.22777 -2.67382,-2.43607 -0.35079,-1.75397 -2.52961,-2.35812 -3.72621,-1.94885 -2.47505,0.19489 -5.63219,5.08651 -4.13157,0.91596 -1.05238,-2.65045 -5.59322,-3.21561 -4.75519,-1.22778 -10.11457,2.10477 0.19489,-4.36543 -2.43607,-2.26067 0.0741,-1.8709 4.17444,-0.38977 3.62098,-0.33131 3.80416,-0.33131 3.39491,-0.35078 5.12159,-0.60415 4.73182,-0.58466 1.73838,3.35202 25.62743,-1.61754 7.11722,-2.82584 0,0 z m -202.41193,-62.51925 7.46411,0.5262 4.79419,0.29232 4.79418,0.29232 4.79419,0.23388 4.83316,0.21437 -0.19489,5.47628 -0.23386,5.37884 -0.23386,5.35934 -0.21439,5.35936 -0.078,2.28015 2.68941,2.35812 7.60054,3.04021 4.36544,0.1754 4.98907,3.68333 6.58712,1.81244 2.22169,-1.81244 7.26923,0.27284 7.83439,-0.93545 7.11333,3.4105 1.22778,1.13033 2.90378,-0.1559 0.0818,3.42998 0.0545,3.09868 0.0389,1.69549 0.0389,2.29966 0.078,3.66384 0.0585,2.3971 2.14374,7.40565 2.80634,4.81367 0.0389,3.85873 -1.63705,4.05361 -0.72106,10.30944 -5.43731,1.42266 -3.78078,3.5859 -5.7881,5.06702 -12.86243,6.52865 -7.11333,5.92453 -1.52009,12.4142 2.84532,9.7443 -1.98783,1.6175 -8.497,-2.7674 -8.71138,-4.6187 -5.14498,-14.59695 -5.16447,-6.93793 -4.04971,-10.93307 -6.78591,-8.51649 -8.80493,-1.98783 -3.51184,1.44215 -5.49577,8.88677 -9.29603,-5.74911 -3.37152,-3.42999 -1.28624,-3.52743 0.0624,-3.81975 -1.71889,-4.5993 -4.17055,-3.58588 -8.28263,-11.55672 -1.32523,-0.77954 5.30089,-2.10476 10.19641,1.03289 8.45412,0.77954 0.40926,0.0195 6.17787,0.50669 2.57249,-0.87698 0.38978,-5.30088 0.38975,-5.32038 0.68211,-7.46411 0.27284,-3.09867 0.48722,-5.98299 0.40926,-5.32037 0.38977,-5.35935 0.52618,-6.82099 0.29234,-3.87822 0.74055,-5.45679 0,0 z m -96.370842,-19.02081 43.673832,7.23024 -9.58837,68.9115 -19.3911,-3.00124 -32.234051,-20.13166 1.39927,-2.53352 2.728402,-1.46164 -0.07411,-1.81243 -1.637036,-1.16932 0.604145,-3.70281 5.979081,-12.00495 -1.633143,-5.55423 0.311822,-1.59806 0.993917,-2.08528 0.545683,-11.2449 3.410496,0 0.838005,1.69551 0.935442,0.078 1.286252,-1.83192 1.851409,-9.78324 0,0 z m 318.169962,-25.54948 2.53741,-1.40318 1.47723,2.90379 -2.39709,1.34471 -0.29232,-0.60414 -0.87698,-1.52012 -0.44825,-0.72106 0,0 z m 10.85512,-11.22541 1.09137,4.15107 0.42874,1.55907 0.33131,1.22778 1.67601,6.08043 0.25335,0.89647 3.33255,0.64312 2.47504,-0.54567 -0.50671,5.49577 -3.42998,1.73447 -1.03289,-0.0585 -1.38369,-3.0597 -3.54691,-0.27284 -1.69551,-4.28749 0.039,-1.77344 0.8575,-0.37029 -1.57858,-6.11941 -0.95104,0.15591 -1.23168,1.96835 1.65653,2.28015 -0.77954,3.25459 1.11085,3.0792 1.32522,1.28624 0,3.05969 -0.078,-0.0195 -7.24974,-1.55908 -0.42875,-1.53959 0.61974,-1.28625 -0.36639,-1.53959 -0.1754,-0.37028 2.39709,-1.34472 -1.47723,-2.90379 -2.53741,1.40318 -0.0936,-0.15591 -1.71889,-2.08527 -2.43607,-0.79903 -1.30572,-1.92937 -3.72232,-0.42875 -6.64559,2.63095 -2.92328,3.89771 -1.029,-6.31429 30.72954,-6.04144 0,0 z m -278.58874,-5.10599 9.33503,1.22777 13.21322,1.57858 8.63343,0.91595 10.15354,0.89648 16.60423,1.22778 -0.77565,12.37522 -2.30354,37.20363 -8.45802,-0.6821 -8.88678,-0.64312 -10.67972,-0.97443 -6.91844,-0.70158 -12.4142,-1.46164 -14.26561,-1.85142 2.43606,-18.39718 1.75787,-12.23881 2.00341,-14.20714 0.56517,-4.26799 0,0 z m 151.79628,-12.49216 23.03545,-1.44216 3.11818,9.49093 2.39709,27.59578 -0.46773,4.01463 1.55908,4.52135 -3.37152,7.17179 -0.1754,5.35934 -3.68333,6.9769 -3.68333,0.74056 -1.94886,2.08528 0.40926,1.03289 -2.28015,-0.74057 -1.09137,-2.31913 0.42876,-2.00732 -2.51403,-4.71623 -2.35812,-0.74056 -3.85873,-3.97567 -0.25724,-1.46163 1.87479,-6.45071 -10.85512,-9.82223 -1.96833,-6.31429 0.6626,-2.24119 9.45195,-19.80036 -0.0974,-1.30572 -4.32645,-5.65168 0,0 z m 48.40954,5.88554 3.31695,-0.5262 4.20173,-0.70158 3.47286,-0.60414 8.55547,3.21561 5.86605,-2.2217 3.17663,-3.89771 5.7881,-3.66385 2.70891,16.40936 -0.74056,11.65414 -2.14374,3.78078 -1.6955,1.59806 -0.83802,-0.72107 -4.18613,5.4568 -0.45214,5.33985 -1.0095,2.14374 -2.2256,0.60415 -2.90379,-3.19612 -3.82365,1.3642 -2.5452,-0.1169 -5.40224,-1.16932 -1.05237,-2.29964 -1.6955,-0.70159 -2.68942,0.19488 -0.29233,-2.45555 -0.3508,-3.2351 -0.48721,-4.30696 -0.56517,-5.37884 -0.52619,-4.63828 -0.38976,-3.21561 -0.38588,-3.23509 -0.25726,-2.14375 -0.42874,-3.33253 0,0 z m 82.92376,-10.09507 4.52133,1.81244 2.96227,1.05238 0.0389,0.99391 -0.0195,0.46772 -0.25335,2.26067 -1.14983,1.11086 -0.21437,1.24726 -0.0389,0.77954 0.15591,0.27284 1.61755,0.0195 0.38977,-0.64312 0.1559,0.0585 0.22996,0.31181 0.41317,1.69551 0.54957,6.72355 -0.1598,0.97443 -0.64313,2.3776 -2.53351,5.5932 -1.50062,0.0389 -2.61147,-0.56516 -1.14981,-0.44825 -1.0134,-0.64312 -2.04631,-2.68941 -0.0974,-0.29234 0.27284,-0.76004 0.47162,-1.57857 1.51621,-1.14983 1.44215,-2.65044 1.79295,-1.65652 -5.12939,-4.71624 -0.34689,-4.50185 0.81852,-1.90987 1.55908,-3.58589 0,0 z m -43.0502,-2.92328 0.58077,3.33254 35.3756,-6.9769 2.10476,1.42266 2.24118,3.87822 2.74789,1.26676 -1.55909,3.5859 -0.81852,1.90987 0.34689,4.50185 5.12939,4.71623 -1.79295,1.65653 -1.44215,2.65044 -1.5162,1.14983 -1.60196,-0.0974 -1.28625,1.73448 -30.72953,6.04145 -2.40099,0.42875 -5.49576,0.93545 -1.42267,-3.48845 -0.29233,-1.75396 -0.46772,-2.92329 -0.48722,-2.94276 -2.70891,-16.40937 5.49577,-4.61878 0,0 z m -302.637595,-4.34594 0.06238,0.0195 23.850085,5.06702 -2.33862,12.12187 -2.61147,13.31068 -0.85749,4.4239 -2.29966,11.81006 -0.99391,5.14497 -1.290146,6.60662 -1.399271,7.34718 -1.851409,9.78325 -1.286252,1.83192 -0.935442,-0.078 -0.838005,-1.69551 -3.410496,0 -0.545683,11.24489 -0.993917,2.08529 -34.674023,-57.70559 -0.405354,-1.81243 9.116743,-35.17683 5.086507,1.30574 9.257059,2.24118 9.3584,2.12426 0,0 z m 366.934205,-6.23634 0.95104,3.37151 0.40926,1.5396 0.29233,3.44947 -8.10724,2.86482 -5.35934,4.83315 -0.19489,-4.83315 -0.35469,-1.96834 -1.18491,-6.39224 3.48845,-0.72108 7.30821,-1.73448 2.75178,-0.40926 0,0 z m 0,0 4.22511,-0.93545 1.26676,3.31305 0.35469,0.35079 1.16541,1.96835 -2.49453,2.26067 -2.86481,1.40317 -0.29233,-3.44947 -0.40926,-1.5396 -0.95104,-3.37151 0,0 z m -423.821272,-8.86728 3.036319,0.97441 4.681153,1.28625 7.425124,2.10476 11.069494,3.2351 6.973011,1.83192 -9.116743,35.17683 0.405354,1.81243 34.674024,57.70559 -0.311823,1.59806 1.633144,5.55423 -5.979082,12.00495 -0.604145,3.70281 1.637036,1.16932 0.07411,1.81243 -2.728402,1.46164 -22.548246,-2.49453 -0.502804,-8.06825 -4.856538,-7.97082 -2.685522,-3.07919 -5.472387,-3.80027 -3.180528,-4.7747 -7.736946,-2.49452 -1.126448,-1.63704 1.009511,-7.60054 -6.060936,-15.16208 -3.020724,-27.01112 -3.800268,-9.47143 2.143744,-11.24489 -2.576396,-6.35328 0.276741,-2.22169 4.521349,-6.27531 2.124244,-6.09991 0.623632,-5.67116 0,0 z m 428.767462,-3.56641 2.39709,7.36667 3.21561,4.15106 2.41268,1.03289 -0.19489,1.20829 -2.45165,2.08528 -3.31306,1.28624 -1.16541,-1.96835 -0.35469,-0.35079 -1.26676,-3.31305 -4.22511,0.93545 -2.75178,0.40926 -7.30821,1.73448 -3.48845,0.72108 -0.078,0.0195 -0.19879,-5.84656 0,-3.00124 6.39614,-1.3642 4.19004,-0.87698 5.26191,-1.77346 2.92328,-2.45556 0,0 z m -109.11636,36.03432 -0.23386,-0.76006 -3.81976,0.42875 -4.0731,0.46773 -3.56641,0.37027 -4.89162,0.48722 1.65653,-2.14374 2.00732,-6.45071 0.078,-4.36544 -0.95493,-4.28747 -2.80635,-6.2948 2.14373,-15.4739 6.74304,-10.42638 2.45556,-1.87089 10.04049,3.87821 2.25289,3.81976 0.91986,4.61878 -2.57639,5.10601 -0.21048,2.78685 1.32522,0.95494 1.01731,-1.69549 2.86092,-1.30574 2.47504,1.67602 1.16931,1.89038 3.11816,9.90018 -0.078,4.9501 -3.0597,3.87821 -3.00124,8.02929 -3.47286,0.60414 -4.20173,0.70158 -3.31695,0.5262 0,0 z m 83.06018,-56.77013 2.0463,9.97814 5.23851,17.22786 0,3.00124 0.19879,5.84656 0.078,-0.0195 1.18491,6.39225 0.35469,1.96833 0.19488,4.83316 0.35079,0.79903 0.74447,0.37029 7.53817,-3.46896 2.0229,-0.23386 0.93935,0.37028 0.23386,0.79903 -1.53959,1.61755 -6.02196,3.35202 -4.57981,1.57858 -1.8709,-1.14983 0.25335,-2.26067 0.0195,-0.46772 -0.0389,-0.99392 -2.96226,-1.05238 -4.52134,-1.81243 -2.74789,-1.26676 -2.24118,-3.87822 -2.10476,-1.42266 -35.3756,6.9769 -0.58077,-3.33255 6.15839,-7.58103 -2.37761,-3.44949 -0.40926,-2.08527 4.32645,-2.22169 12.33626,-1.09135 5.02805,-4.36544 -0.15591,-1.83192 -2.37761,-4.85265 0.1598,-1.28625 8.06437,-11.65414 12.43369,-3.33255 0,0 z m -367.066735,-55.81519 40.321795,10.42637 -2.66993,11.49824 -2.14373,9.5299 -2.260679,10.09506 -0.249456,5.41782 -4.213419,-0.99392 -0.915954,-0.23386 -2.942775,-0.70159 -7.386163,-1.77345 -7.054853,0.31181 -8.574952,0.0585 -4.073102,-1.98783 -6.002475,0.60414 -2.923287,-4.77469 -2.030701,-4.75521 -2.139839,-1.75396 -2.767376,-3.46897 1.16541,-0.42875 0.650917,-2.65044 -0.545683,-14.75282 4.747412,-2.5725 7.506991,3.25459 2.864813,4.95009 1.446056,-1.87089 1.14203,-7.97082 -1.51622,-4.22902 0.56517,-1.22777 0,0 z m 234.447185,56.24393 10.36791,-6.02196 3.97566,-4.98907 3.17663,-1.59805 2.06579,0.77953 -1.8709,0.50671 -1.77346,2.31913 -1.3447,5.24242 2.24118,-1.98782 1.8709,0.1169 2.10477,1.03289 2.3581,3.58589 3.99126,0.54569 1.97224,-0.56517 2.76738,-2.65044 6.08042,-1.40318 7.26923,0.93546 2.84532,0.72106 2.02681,1.32523 0.838,2.33862 -0.77954,1.42266 -1.22778,0.58466 -10.56278,0.27285 -8.08775,3.95616 -3.81975,0.56517 -3.44947,9.58837 -1.23168,-0.91597 -0.89258,-6.19736 -3.00513,-2.86481 -15.47001,-3.93668 -2.43607,-2.70891 0,0 z" connector-curvature="0"/>
 </g>
</svg>
